<?xml version="1.0" encoding="UTF-8" standalone="no"?>
<!-- Created with Inkscape (http://www.inkscape.org/) -->

<svg
   width="256"
   height="256"
   viewBox="0 0 67.733334 67.733334"
   version="1.1"
   id="svg1"
   inkscape:version="1.4 (86a8ad7, 2024-10-11)"
   sodipodi:docname="10.svg"
   inkscape:export-filename="0.png"
   inkscape:export-xdpi="47.393879"
   inkscape:export-ydpi="47.393879"
   xmlns:inkscape="http://www.inkscape.org/namespaces/inkscape"
   xmlns:sodipodi="http://sodipodi.sourceforge.net/DTD/sodipodi-0.dtd"
   xmlns="http://www.w3.org/2000/svg"
   xmlns:svg="http://www.w3.org/2000/svg">
  <defs
     id="defs1" />
  <sodipodi:namedview
     id="namedview1"
     pagecolor="#ffffff"
     bordercolor="#000000"
     borderopacity="0.25"
     inkscape:showpageshadow="2"
     inkscape:pageopacity="0.0"
     inkscape:pagecheckerboard="0"
     inkscape:deskcolor="#d1d1d1"
     inkscape:document-units="mm"
     inkscape:zoom="0.68862935"
     inkscape:cx="411.68736"
     inkscape:cy="506.80384"
     inkscape:window-width="1718"
     inkscape:window-height="1368"
     inkscape:window-x="1682"
     inkscape:window-y="0"
     inkscape:window-maximized="0"
     inkscape:current-layer="layer1"
     inkscape:export-bgcolor="#ffffff00" />
  <g
     inkscape:label="Layer 1"
     inkscape:groupmode="layer"
     id="layer1">
    <path
       d="M 26.577647,54.923519 H 4.5894315 V 50.776858 H 13.046437 V 23.550755 H 4.5894315 v -3.71017 q 1.7186818,0 3.6828896,-0.272807 1.9642079,-0.300087 2.9735929,-0.8457 1.25491,-0.682017 1.964207,-1.718682 0.736578,-1.063946 0.845701,-2.837189 h 4.228503 v 36.610651 h 8.293322 z M 64.361366,34.599424 q 0,10.939547 -3.437363,16.068312 -3.410083,5.101484 -10.612179,5.101484 -7.311218,0 -10.69402,-5.183326 -3.355522,-5.183327 -3.355522,-15.931908 0,-10.830424 3.410083,-15.986469 3.410083,-5.183327 10.639459,-5.183327 7.311218,0 10.66674,5.265169 3.382802,5.237887 3.382802,15.850065 z m -7.174814,12.385422 q 0.954823,-2.209734 1.282191,-5.183326 0.354648,-3.000873 0.354648,-7.202096 0,-4.146661 -0.354648,-7.202095 -0.327368,-3.055434 -1.309472,-5.183326 -0.954823,-2.100611 -2.618944,-3.164557 -1.63684,-1.063946 -4.228503,-1.063946 -2.564382,0 -4.255783,1.063946 -1.664121,1.063946 -2.646225,3.219118 -0.927542,2.018769 -1.282191,5.265168 -0.327368,3.246399 -0.327368,7.120254 0,4.255783 0.300087,7.120253 0.300088,2.86447 1.282192,5.128765 0.900262,2.127892 2.537101,3.246399 1.664121,1.118507 4.392187,1.118507 2.564383,0 4.255784,-1.063946 1.691401,-1.063946 2.618944,-3.219118 z"
       id="text5"
       style="font-size:55.8708px;fill:#00ff00;stroke:#000000;stroke-width:0.748268"
       transform="scale(0.99414053,1.005894)"
       aria-label="10" />
  </g>
</svg>
