<?xml version="1.0" encoding="UTF-8" standalone="no"?>
<!-- Created with Inkscape (http://www.inkscape.org/) -->

<svg
   width="256"
   height="256"
   viewBox="0 0 67.733334 67.733334"
   version="1.1"
   id="svg1"
   inkscape:version="1.4 (86a8ad7, 2024-10-11)"
   sodipodi:docname="12.svg"
   inkscape:export-filename="0.png"
   inkscape:export-xdpi="47.393879"
   inkscape:export-ydpi="47.393879"
   xmlns:inkscape="http://www.inkscape.org/namespaces/inkscape"
   xmlns:sodipodi="http://sodipodi.sourceforge.net/DTD/sodipodi-0.dtd"
   xmlns="http://www.w3.org/2000/svg"
   xmlns:svg="http://www.w3.org/2000/svg">
  <defs
     id="defs1" />
  <sodipodi:namedview
     id="namedview1"
     pagecolor="#ffffff"
     bordercolor="#000000"
     borderopacity="0.25"
     inkscape:showpageshadow="2"
     inkscape:pageopacity="0.0"
     inkscape:pagecheckerboard="0"
     inkscape:deskcolor="#d1d1d1"
     inkscape:document-units="mm"
     inkscape:zoom="0.68862935"
     inkscape:cx="411.68736"
     inkscape:cy="506.80384"
     inkscape:window-width="1718"
     inkscape:window-height="1368"
     inkscape:window-x="1682"
     inkscape:window-y="0"
     inkscape:window-maximized="0"
     inkscape:current-layer="layer1"
     inkscape:export-bgcolor="#ffffff00" />
  <g
     inkscape:label="Layer 1"
     inkscape:groupmode="layer"
     id="layer1">
    <path
       d="M 26.577647,54.923519 H 4.5894315 V 50.776858 H 13.046437 V 23.550755 H 4.5894315 v -3.71017 q 1.7186818,0 3.6828896,-0.272807 1.9642079,-0.300087 2.9735929,-0.8457 1.25491,-0.682017 1.964207,-1.718682 0.736578,-1.063946 0.845701,-2.837189 h 4.228503 v 36.610651 h 8.293322 z m 37.838281,0 H 36.917018 V 49.22186 q 2.86447,-2.455259 5.72894,-4.910519 2.89175,-2.45526 5.37429,-4.883239 5.237888,-5.074204 7.174815,-8.047796 1.936927,-3.000873 1.936927,-6.465517 0,-3.164557 -2.100611,-4.937801 -2.07333,-1.800523 -5.810781,-1.800523 -2.482541,0 -5.374291,0.872981 -2.891751,0.872981 -5.647098,2.673505 h -0.272806 v -5.728939 q 1.936927,-0.954824 5.156045,-1.745963 3.246399,-0.791139 6.274553,-0.791139 6.247272,0 9.793758,3.028153 3.546487,3.000874 3.546487,8.156919 0,2.318856 -0.600175,4.337626 -0.572894,1.991488 -1.718682,3.792012 -1.063946,1.691401 -2.509821,3.328241 -1.418594,1.63684 -3.464644,3.628328 -2.919031,2.86447 -6.029027,5.565256 -3.109996,2.673505 -5.810781,4.965081 h 21.851812 z"
       id="text5"
       style="font-size:55.8708px;fill:#ff6600;stroke:#000000;stroke-width:0.748268"
       transform="scale(0.99414053,1.005894)"
       aria-label="12" />
  </g>
</svg>
