<?xml version="1.0" encoding="UTF-8" standalone="no"?>
<!-- Created with Inkscape (http://www.inkscape.org/) -->

<svg
   width="256"
   height="256"
   viewBox="0 0 67.733334 67.733334"
   version="1.1"
   id="svg1"
   inkscape:version="1.4 (86a8ad7, 2024-10-11)"
   sodipodi:docname="13.svg"
   inkscape:export-filename="0.png"
   inkscape:export-xdpi="47.393879"
   inkscape:export-ydpi="47.393879"
   xmlns:inkscape="http://www.inkscape.org/namespaces/inkscape"
   xmlns:sodipodi="http://sodipodi.sourceforge.net/DTD/sodipodi-0.dtd"
   xmlns="http://www.w3.org/2000/svg"
   xmlns:svg="http://www.w3.org/2000/svg">
  <defs
     id="defs1" />
  <sodipodi:namedview
     id="namedview1"
     pagecolor="#ffffff"
     bordercolor="#000000"
     borderopacity="0.25"
     inkscape:showpageshadow="2"
     inkscape:pageopacity="0.0"
     inkscape:pagecheckerboard="0"
     inkscape:deskcolor="#d1d1d1"
     inkscape:document-units="mm"
     inkscape:zoom="0.68862935"
     inkscape:cx="411.68736"
     inkscape:cy="506.80384"
     inkscape:window-width="1718"
     inkscape:window-height="1368"
     inkscape:window-x="1682"
     inkscape:window-y="0"
     inkscape:window-maximized="0"
     inkscape:current-layer="layer1"
     inkscape:export-bgcolor="#ffffff00" />
  <g
     inkscape:label="Layer 1"
     inkscape:groupmode="layer"
     id="layer1">
    <path
       d="M 26.577647,54.923519 H 4.5894315 V 50.776858 H 13.046437 V 23.550755 H 4.5894315 v -3.71017 q 1.7186818,0 3.6828896,-0.272807 1.9642079,-0.300087 2.9735929,-0.8457 1.25491,-0.682017 1.964207,-1.718682 0.736578,-1.063946 0.845701,-2.837189 h 4.228503 v 36.610651 h 8.293322 z M 60.842161,35.363283 q 1.309471,1.173069 2.155172,2.946312 0.845701,1.773243 0.845701,4.583151 0,2.782628 -1.009385,5.101484 -1.009384,2.318857 -2.837189,4.037539 -2.04605,1.909646 -4.828678,2.837189 -2.755347,0.900262 -6.056307,0.900262 -3.382802,0 -6.656482,-0.81842 -3.27368,-0.791139 -5.374291,-1.745963 v -5.701658 h 0.40921 q 2.318857,1.527717 5.456133,2.537101 3.137276,1.009385 6.056307,1.009385 1.718682,0 3.655609,-0.572894 1.936928,-0.572894 3.137277,-1.691401 1.25491,-1.20035 1.855085,-2.646225 0.627455,-1.445875 0.627455,-3.655609 0,-2.182453 -0.709297,-3.601047 -0.682017,-1.445876 -1.909647,-2.264295 -1.227629,-0.845701 -2.973592,-1.145788 -1.745962,-0.327368 -3.764732,-0.327368 h -2.455259 v -4.528591 h 1.909646 q 4.146661,0 6.601921,-1.718681 2.48254,-1.745963 2.48254,-5.074204 0,-1.473156 -0.627455,-2.564382 -0.627455,-1.118508 -1.745963,-1.827805 -1.173068,-0.709297 -2.509821,-0.982104 -1.336752,-0.272806 -3.028153,-0.272806 -2.591663,0 -5.510694,0.927542 -2.919032,0.927543 -5.510695,2.618944 h -0.272806 v -5.701659 q 1.936927,-0.954823 5.156045,-1.745962 3.246399,-0.81842 6.274553,-0.81842 2.973592,0 5.237887,0.545613 2.264296,0.545613 4.0921,1.745963 1.964208,1.309471 2.973592,3.164557 1.009385,1.855085 1.009385,4.337625 0,3.382802 -2.400698,5.919904 -2.373418,2.509821 -5.619817,3.164557 v 0.38193 q 1.309472,0.218245 3.000873,0.927542 1.691401,0.682017 2.86447,1.718682 z"
       id="text5"
       style="font-size:55.8708px;fill:#ffff00;stroke:#000000;stroke-width:0.748268"
       transform="scale(0.99414053,1.005894)"
       aria-label="13" />
  </g>
</svg>
