<?xml version="1.0" encoding="UTF-8" standalone="no"?>
<!-- Created with Inkscape (http://www.inkscape.org/) -->

<svg
   width="256"
   height="256"
   viewBox="0 0 67.733334 67.733334"
   version="1.1"
   id="svg1"
   inkscape:version="1.4 (86a8ad7, 2024-10-11)"
   sodipodi:docname="15.svg"
   inkscape:export-filename="0.png"
   inkscape:export-xdpi="47.393879"
   inkscape:export-ydpi="47.393879"
   xmlns:inkscape="http://www.inkscape.org/namespaces/inkscape"
   xmlns:sodipodi="http://sodipodi.sourceforge.net/DTD/sodipodi-0.dtd"
   xmlns="http://www.w3.org/2000/svg"
   xmlns:svg="http://www.w3.org/2000/svg">
  <defs
     id="defs1" />
  <sodipodi:namedview
     id="namedview1"
     pagecolor="#ffffff"
     bordercolor="#000000"
     borderopacity="0.25"
     inkscape:showpageshadow="2"
     inkscape:pageopacity="0.0"
     inkscape:pagecheckerboard="0"
     inkscape:deskcolor="#d1d1d1"
     inkscape:document-units="mm"
     inkscape:zoom="0.68862935"
     inkscape:cx="411.68736"
     inkscape:cy="506.80384"
     inkscape:window-width="1718"
     inkscape:window-height="1368"
     inkscape:window-x="1682"
     inkscape:window-y="0"
     inkscape:window-maximized="0"
     inkscape:current-layer="layer1"
     inkscape:export-bgcolor="#ffffff00" />
  <g
     inkscape:label="Layer 1"
     inkscape:groupmode="layer"
     id="layer1">
    <path
       d="M 26.577647,54.923519 H 4.5894315 V 50.776858 H 13.046437 V 23.550755 H 4.5894315 v -3.71017 q 1.7186818,0 3.6828896,-0.272807 1.9642079,-0.300087 2.9735929,-0.8457 1.25491,-0.682017 1.964207,-1.718682 0.736578,-1.063946 0.845701,-2.837189 h 4.228503 v 36.610651 h 8.293322 z M 64.08856,42.019765 q 0,2.837189 -1.036666,5.428852 -1.036665,2.591663 -2.837189,4.364906 -1.964207,1.909647 -4.692274,2.946312 -2.700786,1.009385 -6.274553,1.009385 -3.328241,0 -6.410956,-0.709298 -3.082715,-0.682016 -5.210607,-1.66412 v -5.75622 h 0.38193 q 2.237014,1.418594 5.237887,2.427979 3.000873,0.982104 5.892624,0.982104 1.936927,0 3.737451,-0.545613 1.827804,-0.545614 3.246399,-1.909647 1.200349,-1.173068 1.800524,-2.809908 0.627455,-1.63684 0.627455,-3.792013 0,-2.100611 -0.736578,-3.546486 -0.709297,-1.445875 -1.991489,-2.318856 -1.418594,-1.036666 -3.464644,-1.445876 -2.018769,-0.43649 -4.52859,-0.43649 -2.400699,0 -4.637713,0.327368 -2.209734,0.327368 -3.819293,0.654736 V 14.30261 h 24.443475 v 4.774117 H 44.637446 V 29.87987 q 1.173069,-0.109123 2.400699,-0.163684 1.227629,-0.05456 2.127891,-0.05456 3.300961,0 5.783501,0.572894 2.482541,0.545613 4.555871,1.964208 2.182453,1.500436 3.382802,3.873854 1.20035,2.373418 1.20035,5.947185 z"
       id="text5"
       style="font-size:55.8708px;fill:#ff0000;stroke:#000000;stroke-width:0.748268"
       transform="scale(0.99414053,1.005894)"
       aria-label="15" />
  </g>
</svg>
