<?xml version="1.0" encoding="UTF-8" standalone="no"?>
<!-- Created with Inkscape (http://www.inkscape.org/) -->

<svg
   width="256"
   height="256"
   viewBox="0 0 67.733334 67.733334"
   version="1.1"
   id="svg1"
   inkscape:version="1.4 (86a8ad7, 2024-10-11)"
   sodipodi:docname="16.svg"
   inkscape:export-filename="0.png"
   inkscape:export-xdpi="47.393879"
   inkscape:export-ydpi="47.393879"
   xmlns:inkscape="http://www.inkscape.org/namespaces/inkscape"
   xmlns:sodipodi="http://sodipodi.sourceforge.net/DTD/sodipodi-0.dtd"
   xmlns="http://www.w3.org/2000/svg"
   xmlns:svg="http://www.w3.org/2000/svg">
  <defs
     id="defs1" />
  <sodipodi:namedview
     id="namedview1"
     pagecolor="#ffffff"
     bordercolor="#000000"
     borderopacity="0.25"
     inkscape:showpageshadow="2"
     inkscape:pageopacity="0.0"
     inkscape:pagecheckerboard="0"
     inkscape:deskcolor="#d1d1d1"
     inkscape:document-units="mm"
     inkscape:zoom="0.68862935"
     inkscape:cx="411.68736"
     inkscape:cy="506.80384"
     inkscape:window-width="1718"
     inkscape:window-height="1368"
     inkscape:window-x="1682"
     inkscape:window-y="0"
     inkscape:window-maximized="0"
     inkscape:current-layer="layer1"
     inkscape:export-bgcolor="#ffffff00" />
  <g
     inkscape:label="Layer 1"
     inkscape:groupmode="layer"
     id="layer1">
    <path
       d="M 26.045361,54.923519 H 4.0571458 V 50.776858 H 12.514152 V 23.550755 H 4.0571458 v -3.71017 q 1.7186818,0 3.6828896,-0.272807 1.9642078,-0.300087 2.9735926,-0.8457 1.25491,-0.682017 1.964208,-1.718682 0.736578,-1.063946 0.8457,-2.837189 h 4.228503 v 36.610651 h 8.293322 z M 64.483817,41.746958 q 0,6.192711 -4.0921,10.121127 -4.064819,3.901135 -9.984723,3.901135 -3.000873,0 -5.456133,-0.927543 -2.45526,-0.927542 -4.337626,-2.755347 -2.346137,-2.264295 -3.628328,-6.001746 -1.25491,-3.737451 -1.25491,-9.002619 0,-5.401572 1.145787,-9.575513 1.173069,-4.173942 3.710171,-7.420341 2.400698,-3.082715 6.192711,-4.801397 3.792012,-1.745962 8.838935,-1.745962 1.609559,0 2.700785,0.136403 1.091227,0.136403 2.209734,0.491052 v 5.210607 h -0.272806 q -0.763859,-0.40921 -2.318857,-0.763859 -1.527717,-0.381929 -3.137276,-0.381929 -5.865343,0 -9.357268,3.68289 -3.491925,3.655609 -4.064819,9.902881 2.291576,-1.391314 4.50131,-2.100611 2.237014,-0.736578 5.156045,-0.736578 2.591663,0 4.555871,0.491052 1.991489,0.463771 4.064819,1.909646 2.400698,1.664121 3.601048,4.201222 1.22763,2.537102 1.22763,6.16543 z m -5.537975,0.218246 q 0,-2.537102 -0.763859,-4.201223 -0.736578,-1.66412 -2.45526,-2.89175 -1.25491,-0.872981 -2.782627,-1.145788 -1.527718,-0.272806 -3.191838,-0.272806 -2.318857,0 -4.310345,0.545613 -1.991488,0.545613 -4.0921,1.691401 -0.05456,0.600175 -0.08184,1.173069 -0.02728,0.545613 -0.02728,1.391313 0,4.310345 0.872981,6.820166 0.900262,2.482541 2.45526,3.928416 1.25491,1.200349 2.700785,1.773243 1.473156,0.545613 3.191838,0.545613 3.955696,0 6.219992,-2.400698 2.264295,-2.427979 2.264295,-6.956569 z"
       id="text5"
       style="font-size:55.8708px;fill:#0000ff;stroke:#000000;stroke-width:0.748268"
       transform="scale(0.99414053,1.005894)"
       aria-label="16" />
  </g>
</svg>
