<?xml version="1.0" encoding="UTF-8" standalone="no"?>
<!-- Created with Inkscape (http://www.inkscape.org/) -->

<svg
   width="256"
   height="256"
   viewBox="0 0 67.733334 67.733334"
   version="1.1"
   id="svg1"
   inkscape:version="1.4 (86a8ad7, 2024-10-11)"
   sodipodi:docname="3.svg"
   inkscape:export-filename="0.png"
   inkscape:export-xdpi="47.393879"
   inkscape:export-ydpi="47.393879"
   xmlns:inkscape="http://www.inkscape.org/namespaces/inkscape"
   xmlns:sodipodi="http://sodipodi.sourceforge.net/DTD/sodipodi-0.dtd"
   xmlns="http://www.w3.org/2000/svg"
   xmlns:svg="http://www.w3.org/2000/svg">
  <defs
     id="defs1" />
  <sodipodi:namedview
     id="namedview1"
     pagecolor="#ffffff"
     bordercolor="#000000"
     borderopacity="0.25"
     inkscape:showpageshadow="2"
     inkscape:pageopacity="0.0"
     inkscape:pagecheckerboard="0"
     inkscape:deskcolor="#d1d1d1"
     inkscape:document-units="mm"
     inkscape:zoom="0.68862935"
     inkscape:cx="411.68736"
     inkscape:cy="506.80384"
     inkscape:window-width="1718"
     inkscape:window-height="1368"
     inkscape:window-x="1682"
     inkscape:window-y="0"
     inkscape:window-maximized="0"
     inkscape:current-layer="layer1"
     inkscape:export-bgcolor="#ffffff00" />
  <g
     inkscape:label="Layer 1"
     inkscape:groupmode="layer"
     id="layer1">
    <path
       d="m 48.184886,34.592706 q 1.690486,1.514394 2.782258,3.803594 1.091773,2.2892 1.091773,5.916701 0,3.592283 -1.303083,6.585852 -1.303083,2.993569 -3.66272,5.212332 -2.641384,2.465292 -6.233667,3.662719 -3.557065,1.162209 -7.818498,1.162209 -4.367089,0 -8.593304,-1.056553 -4.226215,-1.021336 -6.938036,-2.253982 v -7.360657 h 0.528277 q 2.993569,1.972233 7.043691,3.275316 4.050123,1.303083 7.818498,1.303083 2.218763,0 4.719274,-0.739587 2.50051,-0.739588 4.050122,-2.183545 1.620049,-1.549612 2.394856,-3.41619 0.810024,-1.866579 0.810024,-4.719274 0,-2.817477 -0.91568,-4.648836 Q 43.07821,37.269309 41.493379,36.212756 39.908548,35.120983 37.654567,34.73358 35.400586,34.310959 32.79442,34.310959 h -3.169661 v -5.846264 h 2.465292 q 5.353205,0 8.522867,-2.218763 3.204879,-2.253982 3.204879,-6.550634 0,-1.901796 -0.810024,-3.310535 -0.810025,-1.443956 -2.253982,-2.359636 -1.514393,-0.91568 -3.240098,-1.267865 -1.725704,-0.352184 -3.909249,-0.352184 -3.345753,0 -7.114128,1.197427 -3.768375,1.197428 -7.114129,3.380972 H 19.024002 V 9.6228193 q 2.500511,-1.2326461 6.656289,-2.2539814 4.190997,-1.0565537 8.100246,-1.0565537 3.838812,0 6.761944,0.7043691 2.923132,0.7043692 5.282768,2.2539814 2.535729,1.6904863 3.838812,4.0853413 1.303083,2.394855 1.303083,5.599735 0,4.367089 -3.099224,7.642405 -3.064006,3.240099 -7.255002,4.085342 v 0.493058 q 1.690486,0.281748 3.87403,1.197428 2.183544,0.880461 3.697938,2.218762 z"
       id="text5"
       style="font-size:72.1274px;fill:#00ff00;stroke:#000000;stroke-width:0.965989"
       transform="scale(0.99414053,1.005894)"
       aria-label="3" />
  </g>
</svg>
