<?xml version="1.0" encoding="UTF-8" standalone="no"?>
<!-- Created with Inkscape (http://www.inkscape.org/) -->

<svg
   width="256"
   height="256"
   viewBox="0 0 67.733334 67.733334"
   version="1.1"
   id="svg1"
   inkscape:version="1.4 (86a8ad7, 2024-10-11)"
   sodipodi:docname="6.svg"
   inkscape:export-filename="0.png"
   inkscape:export-xdpi="47.393879"
   inkscape:export-ydpi="47.393879"
   xmlns:inkscape="http://www.inkscape.org/namespaces/inkscape"
   xmlns:sodipodi="http://sodipodi.sourceforge.net/DTD/sodipodi-0.dtd"
   xmlns="http://www.w3.org/2000/svg"
   xmlns:svg="http://www.w3.org/2000/svg">
  <defs
     id="defs1" />
  <sodipodi:namedview
     id="namedview1"
     pagecolor="#ffffff"
     bordercolor="#000000"
     borderopacity="0.25"
     inkscape:showpageshadow="2"
     inkscape:pageopacity="0.0"
     inkscape:pagecheckerboard="0"
     inkscape:deskcolor="#d1d1d1"
     inkscape:document-units="mm"
     inkscape:zoom="0.68862935"
     inkscape:cx="411.68736"
     inkscape:cy="506.80384"
     inkscape:window-width="1718"
     inkscape:window-height="1368"
     inkscape:window-x="1682"
     inkscape:window-y="0"
     inkscape:window-maximized="0"
     inkscape:current-layer="layer1"
     inkscape:export-bgcolor="#ffffff00" />
  <g
     inkscape:label="Layer 1"
     inkscape:groupmode="layer"
     id="layer1">
    <path
       d="m 53.57331,42.833826 q 0,7.99459 -5.282768,13.066048 -5.247551,5.036239 -12.889956,5.036239 -3.874031,0 -7.043692,-1.197427 -3.169661,-1.197428 -5.599735,-3.557064 -3.028787,-2.923132 -4.684055,-7.748061 -1.620049,-4.824929 -1.620049,-11.622092 0,-6.973254 1.479175,-12.361679 1.514394,-5.388424 4.789711,-9.57942 3.099224,-3.979686 7.99459,-6.1984491 4.895365,-2.2539814 11.41078,-2.2539814 2.077889,0 3.486628,0.1760923 1.408738,0.1760923 2.852695,0.6339323 V 13.95469 h -0.352185 q -0.986117,-0.528277 -2.993569,-0.986117 -1.972233,-0.493059 -4.050122,-0.493059 -7.571969,0 -12.079932,4.754492 -4.507962,4.719274 -5.24755,12.784301 2.95835,-1.796142 5.811046,-2.711821 2.887913,-0.950899 6.656288,-0.950899 3.345754,0 5.881483,0.633932 2.570947,0.598714 5.24755,2.465292 3.099225,2.148326 4.648837,5.423643 1.58483,3.275317 1.58483,7.959372 z m -7.149347,0.281747 q 0,-3.275316 -0.986117,-5.423642 -0.950898,-2.148326 -3.169661,-3.733157 -1.620049,-1.12699 -3.592283,-1.479175 -1.972233,-0.352185 -4.120559,-0.352185 -2.993569,0 -5.564517,0.70437 -2.570947,0.704369 -5.282769,2.183544 -0.07044,0.774806 -0.105655,1.514394 -0.03522,0.704369 -0.03522,1.796141 0,5.564517 1.12699,8.804615 1.162209,3.204879 3.169662,5.071458 1.620049,1.549612 3.486627,2.2892 1.901797,0.704369 4.12056,0.704369 5.106676,0 8.029808,-3.099225 2.923132,-3.134442 2.923132,-8.980707 z"
       id="text5"
       style="font-size:72.1274px;fill:#ffff00;stroke:#000000;stroke-width:0.965989"
       transform="scale(0.99414053,1.005894)"
       aria-label="6" />
  </g>
</svg>
