<?xml version="1.0" encoding="UTF-8" standalone="no"?>
<!-- Created with Inkscape (http://www.inkscape.org/) -->

<svg
   width="256"
   height="256"
   viewBox="0 0 67.733334 67.733334"
   version="1.1"
   id="svg1"
   inkscape:version="1.4 (86a8ad7, 2024-10-11)"
   sodipodi:docname="8.svg"
   inkscape:export-filename="0.png"
   inkscape:export-xdpi="47.393879"
   inkscape:export-ydpi="47.393879"
   xmlns:inkscape="http://www.inkscape.org/namespaces/inkscape"
   xmlns:sodipodi="http://sodipodi.sourceforge.net/DTD/sodipodi-0.dtd"
   xmlns="http://www.w3.org/2000/svg"
   xmlns:svg="http://www.w3.org/2000/svg">
  <defs
     id="defs1" />
  <sodipodi:namedview
     id="namedview1"
     pagecolor="#ffffff"
     bordercolor="#000000"
     borderopacity="0.25"
     inkscape:showpageshadow="2"
     inkscape:pageopacity="0.0"
     inkscape:pagecheckerboard="0"
     inkscape:deskcolor="#d1d1d1"
     inkscape:document-units="mm"
     inkscape:zoom="0.68862935"
     inkscape:cx="411.68736"
     inkscape:cy="506.80384"
     inkscape:window-width="1718"
     inkscape:window-height="1368"
     inkscape:window-x="1682"
     inkscape:window-y="0"
     inkscape:window-maximized="0"
     inkscape:current-layer="layer1"
     inkscape:export-bgcolor="#ffffff00" />
  <g
     inkscape:label="Layer 1"
     inkscape:groupmode="layer"
     id="layer1">
    <path
       d="m 53.185907,45.228681 q 0,6.797162 -5.317987,11.305125 -5.282769,4.507963 -13.312577,4.507963 -8.522867,0 -13.594325,-4.402307 -5.03624,-4.402308 -5.03624,-11.269907 0,-4.367089 2.535729,-7.888935 2.535729,-3.557064 7.149347,-5.634953 v -0.211311 q -4.226215,-2.253981 -6.268885,-4.930584 -2.007453,-2.676603 -2.007453,-6.691507 0,-5.916701 4.860148,-9.861169 4.860147,-3.9444672 12.361679,-3.9444672 7.853716,0 12.537771,3.7683751 4.684055,3.7683751 4.684055,9.5794211 0,3.557064 -2.218763,7.008473 -2.218763,3.41619 -6.515415,5.353206 v 0.21131 q 4.930584,2.113108 7.53675,5.212332 2.606166,3.099225 2.606166,7.888935 z M 44.839133,19.624862 q 0,-3.768376 -2.923132,-5.987138 -2.887914,-2.253982 -7.395877,-2.253982 -4.437526,0 -7.290221,2.113108 -2.817476,2.113107 -2.817476,5.70539 0,2.535729 1.408738,4.402307 1.443957,1.83136 4.33187,3.275317 1.303083,0.633932 3.733157,1.655268 2.465292,1.021335 4.78971,1.690486 3.486628,-2.324419 4.824929,-4.824929 1.338302,-2.500511 1.338302,-5.775827 z m 1.091772,26.27297 q 0,-3.240099 -1.443957,-5.177114 -1.408738,-1.972233 -5.564516,-3.944467 -1.655268,-0.774806 -3.627502,-1.443957 -1.972233,-0.669151 -5.24755,-1.866578 -3.169661,1.725704 -5.106676,4.684055 -1.901797,2.95835 -1.901797,6.691507 0,4.754492 3.275316,7.853716 3.275317,3.099225 8.311557,3.099225 5.141895,0 8.2059,-2.641385 3.099225,-2.641384 3.099225,-7.255002 z"
       id="text5"
       style="font-size:72.1274px;fill:#ff0000;stroke:#000000;stroke-width:0.965989"
       transform="scale(0.99414053,1.005894)"
       aria-label="8" />
  </g>
</svg>
