<?xml version="1.0" encoding="UTF-8" standalone="no"?>
<!-- Created with Inkscape (http://www.inkscape.org/) -->

<svg
   width="256"
   height="256"
   viewBox="0 0 67.733334 67.733334"
   version="1.1"
   id="svg1"
   inkscape:version="1.4 (86a8ad7, 2024-10-11)"
   sodipodi:docname="9.svg"
   inkscape:export-filename="0.png"
   inkscape:export-xdpi="47.393879"
   inkscape:export-ydpi="47.393879"
   xmlns:inkscape="http://www.inkscape.org/namespaces/inkscape"
   xmlns:sodipodi="http://sodipodi.sourceforge.net/DTD/sodipodi-0.dtd"
   xmlns="http://www.w3.org/2000/svg"
   xmlns:svg="http://www.w3.org/2000/svg">
  <defs
     id="defs1" />
  <sodipodi:namedview
     id="namedview1"
     pagecolor="#ffffff"
     bordercolor="#000000"
     borderopacity="0.25"
     inkscape:showpageshadow="2"
     inkscape:pageopacity="0.0"
     inkscape:pagecheckerboard="0"
     inkscape:deskcolor="#d1d1d1"
     inkscape:document-units="mm"
     inkscape:zoom="0.68862935"
     inkscape:cx="411.68736"
     inkscape:cy="506.80384"
     inkscape:window-width="1718"
     inkscape:window-height="1368"
     inkscape:window-x="1682"
     inkscape:window-y="0"
     inkscape:window-maximized="0"
     inkscape:current-layer="layer1"
     inkscape:export-bgcolor="#ffffff00" />
  <g
     inkscape:label="Layer 1"
     inkscape:groupmode="layer"
     id="layer1">
    <path
       d="m 52.728067,30.472147 q 0,6.867599 -1.58483,12.467334 -1.549612,5.599735 -4.719274,9.544202 -3.204879,4.014905 -8.029808,6.198449 -4.824929,2.183545 -11.340344,2.183545 -1.83136,0 -3.451409,-0.211311 -1.620049,-0.176092 -2.887914,-0.598714 v -6.726726 h 0.352185 q 1.021335,0.528277 2.887914,1.021336 1.866578,0.45784 4.155778,0.45784 7.783279,0 12.185586,-4.648837 4.437526,-4.684055 5.141895,-12.889956 -3.275316,1.972234 -6.16323,2.817477 -2.887913,0.845243 -6.304104,0.845243 -3.240098,0 -5.881483,-0.633932 -2.606165,-0.633933 -5.24755,-2.465292 -3.099224,-2.148326 -4.684055,-5.458861 -1.549612,-3.310536 -1.549612,-7.924154 0,-8.029808 5.282769,-13.066048 5.282769,-5.0362394 12.889956,-5.0362394 3.803593,0 7.043691,1.1974276 3.240099,1.1622092 5.670172,3.5218458 2.993569,2.923132 4.613618,7.53675 1.620049,4.5784 1.620049,11.868621 z m -7.114128,-1.514394 q 0,-5.458861 -1.126991,-8.769396 -1.126991,-3.310535 -3.099224,-5.141895 -1.655268,-1.584831 -3.557065,-2.253981 -1.901796,-0.70437 -4.120559,-0.70437 -5.071458,0 -8.029809,3.169662 -2.923132,3.169661 -2.923132,8.91027 0,3.345753 0.950898,5.458861 0.950899,2.113107 3.20488,3.697938 1.584831,1.091772 3.486628,1.479175 1.901796,0.352185 4.226215,0.352185 2.747039,0 5.564516,-0.739588 2.817477,-0.739587 5.282769,-2.148326 0.03522,-0.739587 0.07044,-1.443957 0.07044,-0.739587 0.07044,-1.866578 z"
       id="text5"
       style="font-size:72.1274px;fill:#0000ff;stroke:#000000;stroke-width:0.965989"
       transform="scale(0.99414053,1.005894)"
       aria-label="9" />
  </g>
</svg>
