<?xml version="1.0" encoding="UTF-8" standalone="no"?>
<!-- Created with Inkscape (http://www.inkscape.org/) -->

<svg
   width="256"
   height="256"
   viewBox="0 0 67.733334 67.733334"
   version="1.1"
   id="svg1"
   inkscape:version="1.4 (86a8ad7, 2024-10-11)"
   sodipodi:docname="1.svg"
   inkscape:export-filename="1.png"
   inkscape:export-xdpi="47.393879"
   inkscape:export-ydpi="47.393879"
   xmlns:inkscape="http://www.inkscape.org/namespaces/inkscape"
   xmlns:sodipodi="http://sodipodi.sourceforge.net/DTD/sodipodi-0.dtd"
   xmlns="http://www.w3.org/2000/svg"
   xmlns:svg="http://www.w3.org/2000/svg">
  <sodipodi:namedview
     id="namedview1"
     pagecolor="#ffffff"
     bordercolor="#000000"
     borderopacity="0.25"
     inkscape:showpageshadow="2"
     inkscape:pageopacity="0.0"
     inkscape:pagecheckerboard="0"
     inkscape:deskcolor="#d1d1d1"
     inkscape:document-units="mm"
     inkscape:zoom="0.68862935"
     inkscape:cx="411.68736"
     inkscape:cy="506.80384"
     inkscape:window-width="1718"
     inkscape:window-height="1368"
     inkscape:window-x="1713"
     inkscape:window-y="0"
     inkscape:window-maximized="0"
     inkscape:current-layer="layer1"
     inkscape:export-bgcolor="#ffffff00" />
  <defs
     id="defs1" />
  <g
     inkscape:label="Layer 1"
     inkscape:groupmode="layer"
     id="layer1">
    <path
       d="m 9.0881966,15.566096 h 7.1980304 l 3.599009,6.233526 -3.599009,6.233526 H 9.0881966 L 5.4891797,21.799622 Z"
       id="path8-4"
       style="vector-effect:non-scaling-stroke;fill:none;fill-opacity:1;stroke:#000000;stroke-width:0.359903;stroke-opacity:1;-inkscape-stroke:hairline" />
    <path
       d="m 52.276353,15.566096 h 7.198028 l 3.599009,6.233526 -3.599009,6.233526 h -7.198028 l -3.599012,-6.233526 z"
       id="path9-5"
       style="vector-effect:non-scaling-stroke;fill:none;fill-opacity:1;stroke:#000000;stroke-width:0.359903;stroke-opacity:1;-inkscape-stroke:hairline" />
    <path
       d="m 30.682273,28.033148 h 7.198031 l 3.599009,6.233527 -3.599009,6.233526 h -7.198031 l -3.599009,-6.233526 z"
       id="path11-5"
       style="vector-effect:non-scaling-stroke;fill:none;fill-opacity:1;stroke:#000000;stroke-width:0.359903;stroke-opacity:1;-inkscape-stroke:hairline" />
    <path
       d="m 9.0881966,28.033148 h 7.1980304 l 3.599009,6.233527 -3.599009,6.233526 H 9.0881966 L 5.4891797,34.266675 Z"
       id="path13-1"
       style="vector-effect:non-scaling-stroke;fill:none;fill-opacity:1;stroke:#000000;stroke-width:0.359903;stroke-opacity:1;-inkscape-stroke:hairline" />
    <path
       d="m 52.276353,28.033148 h 7.198028 l 3.599009,6.233527 -3.599009,6.233526 h -7.198028 l -3.599012,-6.233526 z"
       id="path14-7"
       style="vector-effect:non-scaling-stroke;fill:none;fill-opacity:1;stroke:#000000;stroke-width:0.359903;stroke-opacity:1;-inkscape-stroke:hairline" />
    <path
       d="m 19.885236,9.3325706 h 7.198028 l 3.599009,6.2335254 -3.599009,6.233526 h -7.198028 l -3.599009,-6.233526 z"
       id="path16-1"
       style="vector-effect:non-scaling-stroke;fill:none;fill-opacity:1;stroke:#000000;stroke-width:0.359903;stroke-opacity:1;-inkscape-stroke:hairline" />
    <path
       d="m 41.479313,9.3325706 h 7.198028 l 3.599012,6.2335254 -3.599012,6.233526 h -7.198028 l -3.599009,-6.233526 z"
       id="path19-1"
       style="vector-effect:non-scaling-stroke;fill:none;fill-opacity:1;stroke:#000000;stroke-width:0.359903;stroke-opacity:1;-inkscape-stroke:hairline" />
    <path
       d="m 41.479313,34.266675 h 7.198028 l 3.599012,6.233526 -3.599012,6.233526 h -7.198028 l -3.599009,-6.233526 z"
       id="path24-5"
       style="vector-effect:non-scaling-stroke;fill:none;fill-opacity:1;stroke:#000000;stroke-width:0.359903;stroke-opacity:1;-inkscape-stroke:hairline" />
    <path
       d="m 30.682273,3.0990482 h 7.198031 l 3.599009,6.2335224 -3.599009,6.2335254 H 30.682273 L 27.083264,9.3325706 Z"
       id="path26-2"
       style="vector-effect:non-scaling-stroke;fill:none;fill-opacity:1;stroke:#000000;stroke-width:0.359903;stroke-opacity:1;-inkscape-stroke:hairline" />
    <path
       d="m 30.682273,40.500201 h 7.198031 l 3.599009,6.233526 -3.599009,6.233526 h -7.198031 l -3.599009,-6.233526 z"
       id="path31-7"
       style="vector-effect:non-scaling-stroke;fill:none;fill-opacity:1;stroke:#000000;stroke-width:0.359903;stroke-opacity:1;-inkscape-stroke:hairline" />
    <path
       d="m 9.0881966,40.500201 h 7.1980304 l 3.599009,6.233526 -3.599009,6.233526 H 9.0881966 L 5.4891797,46.733727 Z"
       id="path33-6"
       style="vector-effect:non-scaling-stroke;fill:none;fill-opacity:1;stroke:#000000;stroke-width:0.359903;stroke-opacity:1;-inkscape-stroke:hairline" />
    <path
       d="m 52.276353,40.500201 h 7.198028 l 3.599009,6.233526 -3.599009,6.233526 h -7.198028 l -3.599012,-6.233526 z"
       id="path34-1"
       style="vector-effect:non-scaling-stroke;fill:none;fill-opacity:1;stroke:#000000;stroke-width:0.359903;stroke-opacity:1;-inkscape-stroke:hairline" />
    <path
       d="m 19.885236,46.733727 h 7.198028 l 3.599009,6.233526 -3.599009,6.233526 h -7.198028 l -3.599009,-6.233526 z"
       id="path41-4"
       style="vector-effect:non-scaling-stroke;fill:none;fill-opacity:1;stroke:#000000;stroke-width:0.359903;stroke-opacity:1;-inkscape-stroke:hairline" />
    <path
       d="m 41.479313,46.733727 h 7.198028 l 3.599012,6.233526 -3.599012,6.233526 h -7.198028 l -3.599009,-6.233526 z"
       id="path44-2"
       style="vector-effect:non-scaling-stroke;fill:none;fill-opacity:1;stroke:#000000;stroke-width:0.359903;stroke-opacity:1;-inkscape-stroke:hairline" />
    <path
       d="m 30.682273,52.967253 h 7.198031 l 3.599009,6.233526 -3.599009,6.233527 h -7.198031 l -3.599009,-6.233527 z"
       id="path51-3"
       style="vector-effect:non-scaling-stroke;fill:none;fill-opacity:1;stroke:#000000;stroke-width:0.359903;stroke-opacity:1;-inkscape-stroke:hairline" />
    <path
       d="m 30.535536,15.610375 h 7.198028 l 3.599009,6.233527 -3.599009,6.233526 h -7.198028 l -3.599009,-6.233526 z"
       id="path6-6"
       style="vector-effect:non-scaling-stroke;fill:none;fill-opacity:1;stroke:#000000;stroke-width:0.359903;stroke-opacity:1;-inkscape-stroke:hairline" />
    <path
       d="m 19.738496,34.310955 h 7.198031 l 3.599009,6.233484 -3.599009,6.233494 h -7.198031 l -3.599009,-6.233494 z"
       id="path21-8"
       style="vector-effect:non-scaling-stroke;fill:none;fill-opacity:1;stroke:#000000;stroke-width:0.359903;stroke-opacity:1;-inkscape-stroke:hairline" />
    <path
       style="fill:#ff0000;stroke:#000000;stroke-width:1.45216;stroke-opacity:1"
       d="m 110.38099,140.16393 -6.0535,-10.96624 6.2857,-10.85112 6.28569,-10.85111 12.64235,-0.0178 12.64234,-0.0178 5.8727,10.05544 c 3.22998,5.5305 5.8599,10.92164 5.84426,11.98032 -0.0156,1.05869 -2.49953,6.17245 -5.51976,11.36392 l -5.49134,9.43904 -13.22747,0.4158 -13.22747,0.4158 z"
       id="path1"
       transform="scale(0.26458333)" />
    <path
       style="fill:#ffffff;stroke-width:1.45216"
       d="m 29.16952,187.87722 c -3.599414,-6.14888 -6.338558,-11.56502 -6.086986,-12.03586 0.251572,-0.47084 3.240423,-5.59375 6.641891,-11.38424 l 6.184489,-10.52816 h 11.888935 11.888938 l 6.097567,10.71709 c 3.353661,5.8944 6.084774,11.61228 6.069139,12.7064 -0.01563,1.09412 -2.499381,6.23688 -5.519437,11.42835 l -5.491009,9.43904 -12.564569,0.41859 -12.564567,0.41858 z"
       id="path2"
       transform="scale(0.26458333)" />
    <path
       style="fill:#ffffff;stroke-width:1.45216"
       d="m 28.702479,140.24365 -6.149362,-10.82982 6.268858,-10.61396 6.268857,-10.61395 h 12.884406 12.884407 l 6.100105,10.34755 6.100104,10.34755 -6.075285,10.70877 -6.075287,10.70877 -13.02872,0.38745 -13.028722,0.38745 z"
       id="path3"
       transform="scale(0.26458333)" />
    <path
       style="fill:#ffffff;stroke-width:1.45216"
       d="M 34.556028,102.79362 C 33.74974,101.76594 30.7635,96.677552 27.91994,91.48608 L 22.74983,82.04704 29.294197,70.7928 35.838564,59.53856 h 12.075027 12.075026 l 6.705633,11.437991 6.705633,11.437992 -6.319437,10.707448 -6.319437,10.707449 -12.369502,0.41634 c -8.775622,0.29537 -12.795432,-0.12654 -13.835479,-1.45216 z"
       id="path4"
       transform="scale(0.26458333)" />
    <path
       style="fill:#ffffff;stroke-width:1.45216"
       d="M 70.358826,70.7928 C 66.986974,65.002312 64.207685,59.582004 64.182627,58.747673 64.157569,57.91334 66.93434,52.522196 70.35323,46.767353 L 76.569394,36.304 h 12.000053 c 13.444143,0 12.526983,-0.598927 20.013653,13.06944 l 5.17011,9.43904 -6.54437,11.25424 -6.54436,11.25424 H 88.576971 76.489464 Z"
       id="path5"
       transform="scale(0.26458333)" />
    <path
       style="fill:#ffffff;stroke-width:1.45216"
       d="m 74.305539,124.52272 c -1.099898,-1.79705 -4.04559,-6.69166 -6.545982,-10.87691 l -4.546166,-7.60955 6.210382,-10.542451 6.210382,-10.542449 12.549228,-0.418173 12.549227,-0.418173 5.81973,9.964747 c 3.20085,5.480611 6.02142,10.632739 6.26793,11.449169 0.24652,0.81643 -2.16568,6.15761 -5.36043,11.86929 l -5.80864,10.38488 -12.672923,0.003 c -11.583577,0.003 -12.844824,-0.27737 -14.672738,-3.26387 z"
       id="path6"
       transform="scale(0.26458333)" />
    <path
       style="fill:#ffffff;stroke-width:1.45216"
       d="m 70.358826,165.1832 c -3.371852,-5.79049 -6.151141,-11.20787 -6.176199,-12.03863 -0.02506,-0.83076 2.706065,-6.2219 6.069161,-11.98032 L 76.36651,130.6944 h 12.115455 12.115455 l 6.33553,11.12534 c 3.48454,6.11894 6.21752,11.53738 6.07329,12.04097 -0.14423,0.50359 -2.97798,5.626 -6.29721,11.38313 l -6.03497,10.46752 H 88.58176 76.489464 Z"
       id="path7"
       transform="scale(0.26458333)" />
    <path
       style="fill:#ffffff;stroke-width:1.45216"
       d="m 75.172274,220.36528 c -0.781959,-0.99836 -3.729265,-6.06277 -6.549568,-11.25424 l -5.127824,-9.43904 6.06725,-10.16512 6.06725,-10.16512 13.010909,-0.38486 13.010909,-0.38486 6.24469,10.82042 6.24469,10.82041 -6.24469,10.93719 -6.24469,10.93718 -12.52859,0.0466 c -8.345729,0.0311 -13.003262,-0.55941 -13.950336,-1.76858 z"
       id="path8"
       transform="scale(0.26458333)" />
    <path
       style="fill:#ffffff;stroke-width:1.45216"
       d="m 115.85485,243.59984 c -2.87947,-3.73436 -10.57325,-18.20806 -10.57325,-19.8906 0,-0.96146 2.64271,-6.27306 5.8727,-11.80356 l 5.87269,-10.05544 12.64235,0.0178 12.64234,0.0178 6.28454,10.84914 6.28454,10.84913 -6.21043,10.91546 -6.21042,10.91545 H 129.8572 c -8.36757,0 -13.07305,-0.61 -14.00235,-1.8152 z"
       id="path9"
       transform="scale(0.26458333)" />
    <path
       style="fill:#ffffff;stroke-width:1.45216"
       d="m 110.73386,187.8222 -6.42566,-11.12372 6.48069,-11.4386 6.48068,-11.43859 12.49315,0.41688 12.49314,0.41687 6.21558,11.02384 6.21559,11.02383 -6.18768,11.09028 -6.18767,11.09027 -12.57608,0.0313 -12.57608,0.0313 z"
       id="path10"
       transform="scale(0.26458333)" />
    <path
       style="fill:#ffffff;stroke-width:1.45216"
       d="m 110.04527,93.772773 -6.12754,-10.751904 6.12754,-10.983745 6.12753,-10.983744 h 13.06944 13.06944 l 6.018,10.789723 6.018,10.789723 -6.41652,10.961348 -6.41652,10.961346 -12.67092,-0.0154 -12.67092,-0.0154 z"
       id="path11"
       transform="scale(0.26458333)" />
    <path
       style="fill:#ffffff;stroke-width:1.45216"
       d="m 110.85602,46.705051 -6.71196,-11.484664 6.52693,-11.075474 6.52694,-11.075473 12.55687,0.01542 12.55688,0.01542 6.25858,10.980517 6.25858,10.980516 -6.28649,11.149503 -6.28649,11.149501 -12.34394,0.414698 -12.34394,0.414698 z"
       id="path12"
       transform="scale(0.26458333)" />
    <path
       style="fill:#ffffff;stroke-width:1.45216"
       d="m 151.47137,70.02888 -6.39767,-11.292082 6.54299,-11.216399 6.54299,-11.216399 12.40624,0.04662 12.40624,0.04662 6.30553,11.041937 c 4.45682,7.804573 5.94697,11.744789 5.08256,13.439212 -0.67263,1.3185 -3.51012,6.449712 -6.30553,11.402691 l -5.08256,9.005419 -12.55155,0.01723 -12.55156,0.01723 z"
       id="path13"
       transform="scale(0.26458333)" />
    <path
       style="fill:#ffffff;stroke-width:1.45216"
       d="m 151.1713,116.59784 -6.48696,-11.19223 3.621,-5.870647 c 1.99155,-3.228853 4.68272,-7.994427 5.98039,-10.590163 l 2.35939,-4.71952 h 13.42484 13.42485 l 6.04258,10.946471 6.04259,10.946469 -6.19985,10.83593 -6.19984,10.83593 h -12.76102 -12.76102 z"
       id="path14"
       transform="scale(0.26458333)" />
    <path
       style="fill:#ffffff;stroke-width:1.45216"
       d="m 151.68875,164.45712 -6.55733,-11.25424 6.35997,-11.25424 6.35996,-11.25424 12.56041,0.0154 12.5604,0.0154 6.30946,11.06928 6.30946,11.06929 -3.82994,6.70425 c -2.10647,3.68734 -4.90339,8.82804 -6.21538,11.42378 l -2.38544,4.71952 H 170.7032 158.24609 Z"
       id="path15"
       transform="scale(0.26458333)" />
    <path
       style="fill:#ffffff;stroke-width:1.45216"
       d="m 151.87625,211.8878 c -3.26379,-5.66098 -5.93417,-10.93811 -5.93417,-11.72696 0,-0.78885 2.64271,-5.95922 5.8727,-11.48972 l 5.87269,-10.05544 h 12.90367 12.90367 l 6.01076,10.88883 6.01077,10.88883 -6.19798,10.89357 -6.19797,10.89357 h -12.65498 -12.65499 z"
       id="path16"
       transform="scale(0.26458333)" />
    <path
       style="fill:#ffffff;stroke-width:1.45216"
       d="m 192.67018,188.3411 c -3.33719,-5.83266 -6.06762,-11.15846 -6.06762,-11.83511 0,-0.67666 2.77726,-6.02529 6.17168,-11.88585 l 6.17168,-10.65556 12.34336,-0.002 12.34336,-0.002 6.17168,10.82892 c 3.39442,5.95591 6.17168,11.2551 6.17168,11.77597 0,0.52088 -2.7439,5.76974 -6.09757,11.66414 l -6.09756,10.71709 h -12.52154 -12.52154 z"
       id="path17"
       transform="scale(0.26458333)" />
    <path
       style="fill:#ffffff;stroke-width:1.45216"
       d="m 192.47526,140.9692 c -3.22999,-5.5305 -5.8727,-10.70087 -5.8727,-11.48972 0,-0.78885 2.67038,-6.06598 5.93417,-11.72696 l 5.93417,-10.29268 h 12.68494 12.68493 l 6.06761,10.60483 c 3.33719,5.83265 6.06762,11.00302 6.06762,11.48971 0,0.48669 -2.67038,5.5166 -5.93417,11.17758 l -5.93417,10.29268 H 211.2278 198.34795 Z"
       id="path18"
       transform="scale(0.26458333)" />
    <path
       style="fill:#ffffff;stroke-width:1.45216"
       d="m 192.51292,93.848588 c -3.2507,-5.888814 -5.91036,-11.137677 -5.91036,-11.66414 0,-0.526463 2.77726,-5.830219 6.17168,-11.786125 l 6.17168,-10.828919 12.34336,0.0018 12.34336,0.0018 5.08256,9.005417 c 2.79541,4.952981 5.64823,10.118546 6.33959,11.479037 0.90899,1.788716 -0.47777,5.522713 -5.00844,13.485832 l -6.26548,11.01221 h -12.6788 -12.67879 z"
       id="path19"
       transform="scale(0.26458333)" />
  </g>
</svg>
