<?xml version="1.0" encoding="UTF-8" standalone="no"?>
<!-- Created with Inkscape (http://www.inkscape.org/) -->

<svg
   width="256"
   height="256"
   viewBox="0 0 67.733334 67.733334"
   version="1.1"
   id="svg1"
   inkscape:version="1.4 (86a8ad7, 2024-10-11)"
   sodipodi:docname="10.svg"
   inkscape:export-filename="10.png"
   inkscape:export-xdpi="47.393879"
   inkscape:export-ydpi="47.393879"
   xmlns:inkscape="http://www.inkscape.org/namespaces/inkscape"
   xmlns:sodipodi="http://sodipodi.sourceforge.net/DTD/sodipodi-0.dtd"
   xmlns="http://www.w3.org/2000/svg"
   xmlns:svg="http://www.w3.org/2000/svg">
  <sodipodi:namedview
     id="namedview1"
     pagecolor="#ffffff"
     bordercolor="#000000"
     borderopacity="0.25"
     inkscape:showpageshadow="2"
     inkscape:pageopacity="0.0"
     inkscape:pagecheckerboard="0"
     inkscape:deskcolor="#d1d1d1"
     inkscape:document-units="mm"
     inkscape:zoom="0.68862935"
     inkscape:cx="410.96128"
     inkscape:cy="507.52992"
     inkscape:window-width="1147"
     inkscape:window-height="1211"
     inkscape:window-x="1386"
     inkscape:window-y="89"
     inkscape:window-maximized="0"
     inkscape:current-layer="layer1"
     inkscape:export-bgcolor="#ffffff00" />
  <defs
     id="defs1" />
  <g
     inkscape:label="Layer 1"
     inkscape:groupmode="layer"
     id="layer1">
    <path
       d="m 9.0881966,15.566096 h 7.1980304 l 3.599009,6.233526 -3.599009,6.233526 H 9.0881966 L 5.4891797,21.799622 Z"
       id="path8-4"
       style="vector-effect:non-scaling-stroke;fill:none;fill-opacity:1;stroke:#000000;stroke-width:0.359903;stroke-opacity:1;-inkscape-stroke:hairline" />
    <path
       d="m 52.276353,15.566096 h 7.198028 l 3.599009,6.233526 -3.599009,6.233526 h -7.198028 l -3.599012,-6.233526 z"
       id="path9-5"
       style="vector-effect:non-scaling-stroke;fill:none;fill-opacity:1;stroke:#000000;stroke-width:0.359903;stroke-opacity:1;-inkscape-stroke:hairline" />
    <path
       d="m 30.682273,28.033148 h 7.198031 l 3.599009,6.233527 -3.599009,6.233526 h -7.198031 l -3.599009,-6.233526 z"
       id="path11-5"
       style="vector-effect:non-scaling-stroke;fill:none;fill-opacity:1;stroke:#000000;stroke-width:0.359903;stroke-opacity:1;-inkscape-stroke:hairline" />
    <path
       d="m 9.0881966,28.033148 h 7.1980304 l 3.599009,6.233527 -3.599009,6.233526 H 9.0881966 L 5.4891797,34.266675 Z"
       id="path13-1"
       style="vector-effect:non-scaling-stroke;fill:none;fill-opacity:1;stroke:#000000;stroke-width:0.359903;stroke-opacity:1;-inkscape-stroke:hairline" />
    <path
       d="m 52.276353,28.033148 h 7.198028 l 3.599009,6.233527 -3.599009,6.233526 h -7.198028 l -3.599012,-6.233526 z"
       id="path14-7"
       style="vector-effect:non-scaling-stroke;fill:none;fill-opacity:1;stroke:#000000;stroke-width:0.359903;stroke-opacity:1;-inkscape-stroke:hairline" />
    <path
       d="m 19.885236,9.3325706 h 7.198028 l 3.599009,6.2335254 -3.599009,6.233526 h -7.198028 l -3.599009,-6.233526 z"
       id="path16-1"
       style="vector-effect:non-scaling-stroke;fill:none;fill-opacity:1;stroke:#000000;stroke-width:0.359903;stroke-opacity:1;-inkscape-stroke:hairline" />
    <path
       d="m 41.479313,9.3325706 h 7.198028 l 3.599012,6.2335254 -3.599012,6.233526 h -7.198028 l -3.599009,-6.233526 z"
       id="path19-1"
       style="vector-effect:non-scaling-stroke;fill:none;fill-opacity:1;stroke:#000000;stroke-width:0.359903;stroke-opacity:1;-inkscape-stroke:hairline" />
    <path
       d="m 41.479313,34.266675 h 7.198028 l 3.599012,6.233526 -3.599012,6.233526 h -7.198028 l -3.599009,-6.233526 z"
       id="path24-5"
       style="vector-effect:non-scaling-stroke;fill:none;fill-opacity:1;stroke:#000000;stroke-width:0.359903;stroke-opacity:1;-inkscape-stroke:hairline" />
    <path
       d="m 30.682273,3.0990482 h 7.198031 l 3.599009,6.2335224 -3.599009,6.2335254 H 30.682273 L 27.083264,9.3325706 Z"
       id="path26-2"
       style="vector-effect:non-scaling-stroke;fill:none;fill-opacity:1;stroke:#000000;stroke-width:0.359903;stroke-opacity:1;-inkscape-stroke:hairline" />
    <path
       d="m 30.682273,40.500201 h 7.198031 l 3.599009,6.233526 -3.599009,6.233526 h -7.198031 l -3.599009,-6.233526 z"
       id="path31-7"
       style="vector-effect:non-scaling-stroke;fill:none;fill-opacity:1;stroke:#000000;stroke-width:0.359903;stroke-opacity:1;-inkscape-stroke:hairline" />
    <path
       d="m 9.0881966,40.500201 h 7.1980304 l 3.599009,6.233526 -3.599009,6.233526 H 9.0881966 L 5.4891797,46.733727 Z"
       id="path33-6"
       style="vector-effect:non-scaling-stroke;fill:none;fill-opacity:1;stroke:#000000;stroke-width:0.359903;stroke-opacity:1;-inkscape-stroke:hairline" />
    <path
       d="m 52.276353,40.500201 h 7.198028 l 3.599009,6.233526 -3.599009,6.233526 h -7.198028 l -3.599012,-6.233526 z"
       id="path34-1"
       style="vector-effect:non-scaling-stroke;fill:none;fill-opacity:1;stroke:#000000;stroke-width:0.359903;stroke-opacity:1;-inkscape-stroke:hairline" />
    <path
       d="m 19.885236,46.733727 h 7.198028 l 3.599009,6.233526 -3.599009,6.233526 h -7.198028 l -3.599009,-6.233526 z"
       id="path41-4"
       style="vector-effect:non-scaling-stroke;fill:none;fill-opacity:1;stroke:#000000;stroke-width:0.359903;stroke-opacity:1;-inkscape-stroke:hairline" />
    <path
       d="m 41.479313,46.733727 h 7.198028 l 3.599012,6.233526 -3.599012,6.233526 h -7.198028 l -3.599009,-6.233526 z"
       id="path44-2"
       style="vector-effect:non-scaling-stroke;fill:none;fill-opacity:1;stroke:#000000;stroke-width:0.359903;stroke-opacity:1;-inkscape-stroke:hairline" />
    <path
       d="m 30.682273,52.967253 h 7.198031 l 3.599009,6.233526 -3.599009,6.233527 h -7.198031 l -3.599009,-6.233527 z"
       id="path51-3"
       style="vector-effect:non-scaling-stroke;fill:none;fill-opacity:1;stroke:#000000;stroke-width:0.359903;stroke-opacity:1;-inkscape-stroke:hairline" />
    <path
       d="m 30.535536,15.610375 h 7.198028 l 3.599009,6.233527 -3.599009,6.233526 h -7.198028 l -3.599009,-6.233526 z"
       id="path6-6"
       style="vector-effect:non-scaling-stroke;fill:none;fill-opacity:1;stroke:#000000;stroke-width:0.359903;stroke-opacity:1;-inkscape-stroke:hairline" />
    <path
       d="m 19.738496,34.310955 h 7.198031 l 3.599009,6.233484 -3.599009,6.233494 h -7.198031 l -3.599009,-6.233494 z"
       id="path21-8"
       style="vector-effect:non-scaling-stroke;fill:none;fill-opacity:1;stroke:#000000;stroke-width:0.359903;stroke-opacity:1;-inkscape-stroke:hairline" />
    <path
       style="fill:#00ff00;stroke:#000000;stroke-width:1.45216;stroke-opacity:1"
       d="m 69.879703,211.26495 c -3.415759,-6.00354 -5.996296,-11.39468 -5.734527,-11.98032 0.26177,-0.58563 2.982706,-5.47573 6.046526,-10.86687 l 5.570582,-9.80208 h 12.880403 12.880403 l 5.8727,10.05544 c 3.22998,5.5305 5.87269,10.70087 5.87269,11.48972 0,0.78885 -2.67038,6.06598 -5.93417,11.72696 l -5.93417,10.29268 H 88.745155 76.090174 Z"
       id="path48"
       transform="scale(0.26458333)" />
    <path
       style="fill:#00ff00;stroke:#000000;stroke-width:1.45216;stroke-opacity:1"
       d="m 29.332127,188.22883 c -3.353662,-5.8944 -6.097567,-11.14326 -6.097567,-11.66414 0,-0.52087 2.777256,-5.83855 6.17168,-11.81704 l 6.17168,-10.87 12.148919,0.3887 12.148919,0.38869 6.480695,11.22698 6.480694,11.22698 -6.21214,10.91846 -6.21214,10.91846 H 47.92128 35.429694 Z"
       id="path49"
       transform="scale(0.26458333)" />
    <path
       style="fill:#00ff00;stroke:#000000;stroke-width:1.45216;stroke-opacity:1"
       d="m 28.953869,140.53974 -6.228963,-10.4849 5.938095,-10.93446 5.938096,-10.93446 13.040499,-0.41549 13.040497,-0.41549 5.599914,9.85453 c 3.079952,5.41999 5.824834,10.36592 6.099737,10.99096 0.274902,0.62503 -2.292158,6.01618 -5.704577,11.98032 l -6.2044,10.84389 H 47.8278 35.182834 Z"
       id="path50"
       transform="scale(0.26458333)" />
    <path
       style="fill:#00ff00;stroke:#000000;stroke-width:1.45216;stroke-opacity:1"
       d="M 29.331175,94.001377 C 25.978037,88.140848 23.23456,82.869178 23.23456,82.286555 c 0,-0.582622 2.777256,-5.932326 6.17168,-11.888232 l 6.17168,-10.828919 h 12.34336 12.34336 l 6.404772,11.235552 6.404774,11.235551 -5.916361,10.894468 -5.916362,10.894465 -12.906836,0.41372 -12.906837,0.41373 z"
       id="path51"
       transform="scale(0.26458333)" />
    <path
       style="fill:#00ff00;stroke:#000000;stroke-width:1.45216;stroke-opacity:1"
       d="M 70.06672,70.461198 C 66.672296,64.505292 63.89504,59.263369 63.89504,58.81248 c 0,-0.450888 2.777256,-5.692811 6.17168,-11.648717 l 6.17168,-10.828919 12.417474,-0.01542 12.417476,-0.01542 6.26548,11.012213 c 4.53067,7.96312 5.91743,11.697117 5.00844,13.485832 -0.69136,1.360491 -3.54418,6.526057 -6.33959,11.479036 l -5.08256,9.00542 -12.34336,0.0018 -12.34336,0.0018 z"
       id="path52"
       transform="scale(0.26458333)" />
    <path
       style="fill:#00ff00;stroke:#000000;stroke-width:1.45216;stroke-opacity:1"
       d="m 157.22305,79.50576 c -0.77991,-0.99836 -3.82396,-5.97435 -6.76455,-11.057757 l -5.34654,-9.242558 6.25161,-11.087682 6.25161,-11.087683 12.52168,-0.417289 12.52168,-0.41729 6.16192,10.58241 c 3.38905,5.820325 6.16191,11.235881 6.16191,12.034569 0,0.798688 -2.75878,6.189832 -6.13063,11.98032 l -6.13064,10.52816 h -12.04002 c -7.90764,0 -12.52671,-0.623014 -13.45803,-1.8152 z"
       id="path53"
       transform="scale(0.26458333)" />
    <path
       style="fill:#00ff00;stroke:#000000;stroke-width:1.45216;stroke-opacity:1"
       d="m 197.88353,102.74032 c -0.77991,-0.99836 -3.82134,-5.969877 -6.75873,-11.047818 l -5.3407,-9.232617 6.71892,-11.460662 6.71892,-11.460663 h 12.07503 12.07503 l 6.54436,11.25424 6.54437,11.25424 -5.17011,9.43904 c -7.48617,13.66745 -6.57097,13.06944 -20.00134,13.06944 -7.86581,0 -12.47532,-0.62415 -13.40575,-1.8152 z"
       id="path54"
       transform="scale(0.26458333)" />
    <path
       style="fill:#00ff00;stroke:#000000;stroke-width:1.45216;stroke-opacity:1"
       d="m 192.09231,140.24189 -6.12753,-10.7519 6.12753,-10.98375 6.12753,-10.98374 12.52859,-0.0313 c 14.04189,-0.0351 13.03376,-0.67517 20.53593,13.03811 l 5.16384,9.43904 -6.04474,10.51185 -6.04474,10.51186 -13.06944,8.8e-4 -13.06944,8.9e-4 z"
       id="path55"
       transform="scale(0.26458333)" />
    <path
       style="fill:#00ff00;stroke:#000000;stroke-width:1.45216;stroke-opacity:1"
       d="m 197.87979,197.13072 c -0.78195,-0.99836 -3.77118,-6.06939 -6.64272,-11.26896 l -5.22097,-9.45377 6.51436,-11.23951 6.51435,-11.23952 h 12.16839 12.16838 l 6.13064,10.52816 c 3.37185,5.79049 6.15114,11.20787 6.17619,12.03863 0.0251,0.83076 -2.70606,6.2219 -6.06916,11.98032 l -6.11472,10.46985 h -12.10149 c -7.95483,0 -12.58867,-0.62199 -13.52325,-1.8152 z"
       id="path56"
       transform="scale(0.26458333)" />
    <path
       style="fill:#00ff00;stroke:#000000;stroke-width:1.45216;stroke-opacity:1"
       d="m 151.32458,211.21065 -6.23477,-10.939 6.18927,-10.87827 6.18928,-10.87828 13.05369,0.41333 13.05369,0.41333 6.11995,10.38849 6.11995,10.38848 -6.45722,11.03088 -6.45722,11.03087 -12.67092,-0.0154 -12.67092,-0.0154 z"
       id="path57"
       transform="scale(0.26458333)" />
    <path
       style="fill:#ffffff;stroke-width:1.45216"
       d="m 110.85602,46.705051 -6.71196,-11.484664 6.52693,-11.075474 6.52694,-11.075473 12.55687,0.01542 12.55688,0.01542 6.25858,10.980517 6.25858,10.980516 -6.28649,11.149503 -6.28649,11.149501 -12.34394,0.414698 -12.34394,0.414698 z"
       id="path1"
       transform="scale(0.26458333)" />
    <path
       style="fill:#ffffff;stroke-width:1.45216"
       d="m 110.04527,93.772773 -6.12754,-10.751904 6.12754,-10.983745 6.12753,-10.983744 h 13.06944 13.06944 l 6.018,10.789723 6.018,10.789723 -6.41652,10.961348 -6.41652,10.961346 -12.67092,-0.0154 -12.67092,-0.0154 z"
       id="path2"
       transform="scale(0.26458333)" />
    <path
       style="fill:#ffffff;stroke-width:1.45216"
       d="m 114.96602,147.75728 c -1.0999,-1.79705 -3.9897,-6.60082 -6.42178,-10.67506 l -4.42197,-7.4077 6.43775,-11.10734 6.43775,-11.10734 12.65696,0.0154 12.65695,0.0154 6.2671,10.99538 6.2671,10.99538 -6.16304,10.7716 -6.16303,10.7716 h -12.77699 c -11.68956,0 -12.94719,-0.27808 -14.7768,-3.26736 z"
       id="path3"
       transform="scale(0.26458333)" />
    <path
       style="fill:#ffffff;stroke-width:1.45216"
       d="m 110.73386,187.8222 -6.42566,-11.12372 6.48069,-11.4386 6.48068,-11.43859 12.49315,0.41688 12.49314,0.41687 6.21558,11.02384 6.21559,11.02383 -6.18768,11.09028 -6.18767,11.09027 -12.57608,0.0313 -12.57608,0.0313 z"
       id="path4"
       transform="scale(0.26458333)" />
    <path
       style="fill:#ffffff;stroke-width:1.45216"
       d="m 115.85485,243.59984 c -2.87947,-3.73436 -10.57325,-18.20806 -10.57325,-19.8906 0,-0.96146 2.64271,-6.27306 5.8727,-11.80356 l 5.87269,-10.05544 12.64235,0.0178 12.64234,0.0178 6.28454,10.84914 6.28454,10.84913 -6.21043,10.91546 -6.21042,10.91545 H 129.8572 c -8.36757,0 -13.07305,-0.61 -14.00235,-1.8152 z"
       id="path5"
       transform="scale(0.26458333)" />
    <path
       style="fill:#ffffff;stroke-width:1.45216"
       d="m 70.358826,165.1832 c -3.371852,-5.79049 -6.151141,-11.20787 -6.176199,-12.03863 -0.02506,-0.83076 2.706065,-6.2219 6.069161,-11.98032 L 76.36651,130.6944 h 12.115455 12.115455 l 6.33553,11.12534 c 3.48454,6.11894 6.21752,11.53738 6.07329,12.04097 -0.14423,0.50359 -2.97798,5.626 -6.29721,11.38313 l -6.03497,10.46752 H 88.58176 76.489464 Z"
       id="path6"
       transform="scale(0.26458333)" />
    <path
       style="fill:#ffffff;stroke-width:1.45216"
       d="m 74.305539,124.52272 c -1.099898,-1.79705 -4.04559,-6.69166 -6.545982,-10.87691 l -4.546166,-7.60955 6.210382,-10.542451 6.210382,-10.542449 12.549228,-0.418173 12.549227,-0.418173 5.81973,9.964747 c 3.20085,5.480611 6.02142,10.632739 6.26793,11.449169 0.24652,0.81643 -2.16568,6.15761 -5.36043,11.86929 l -5.80864,10.38488 -12.672923,0.003 c -11.583577,0.003 -12.844824,-0.27737 -14.672738,-3.26387 z"
       id="path7"
       transform="scale(0.26458333)" />
    <path
       style="fill:#ffffff;stroke-width:1.45216"
       d="m 151.1713,116.59784 -6.48696,-11.19223 3.621,-5.870647 c 1.99155,-3.228853 4.68272,-7.994427 5.98039,-10.590163 l 2.35939,-4.71952 h 13.42484 13.42485 l 6.04258,10.946471 6.04259,10.946469 -6.19985,10.83593 -6.19984,10.83593 h -12.76102 -12.76102 z"
       id="path8"
       transform="scale(0.26458333)" />
    <path
       style="fill:#ffffff;stroke-width:1.45216"
       d="m 151.68875,164.45712 -6.55733,-11.25424 6.35997,-11.25424 6.35996,-11.25424 12.56041,0.0154 12.5604,0.0154 6.30946,11.06928 6.30946,11.06929 -3.82994,6.70425 c -2.10647,3.68734 -4.90339,8.82804 -6.21538,11.42378 l -2.38544,4.71952 H 170.7032 158.24609 Z"
       id="path9"
       transform="scale(0.26458333)" />
  </g>
</svg>
