<?xml version="1.0" encoding="UTF-8" standalone="no"?>
<!-- Created with Inkscape (http://www.inkscape.org/) -->

<svg
   width="256"
   height="256"
   viewBox="0 0 67.733334 67.733334"
   version="1.1"
   id="svg1"
   inkscape:version="1.4 (86a8ad7, 2024-10-11)"
   sodipodi:docname="11.svg"
   inkscape:export-filename="Documents\GitHub\tronimoes\tronapp\public\tilesets\beehive\0.png"
   inkscape:export-xdpi="47.393879"
   inkscape:export-ydpi="47.393879"
   xmlns:inkscape="http://www.inkscape.org/namespaces/inkscape"
   xmlns:sodipodi="http://sodipodi.sourceforge.net/DTD/sodipodi-0.dtd"
   xmlns="http://www.w3.org/2000/svg"
   xmlns:svg="http://www.w3.org/2000/svg">
  <sodipodi:namedview
     id="namedview1"
     pagecolor="#ffffff"
     bordercolor="#000000"
     borderopacity="0.25"
     inkscape:showpageshadow="2"
     inkscape:pageopacity="0.0"
     inkscape:pagecheckerboard="0"
     inkscape:deskcolor="#d1d1d1"
     inkscape:document-units="mm"
     inkscape:zoom="0.68862935"
     inkscape:cx="410.96128"
     inkscape:cy="507.52992"
     inkscape:window-width="1920"
     inkscape:window-height="991"
     inkscape:window-x="-9"
     inkscape:window-y="-9"
     inkscape:window-maximized="1"
     inkscape:current-layer="layer1"
     inkscape:export-bgcolor="#ffffff00" />
  <defs
     id="defs1" />
  <g
     inkscape:label="Layer 1"
     inkscape:groupmode="layer"
     id="layer1">
    <path
       d="m 9.0881966,15.566096 h 7.1980304 l 3.599009,6.233526 -3.599009,6.233526 H 9.0881966 L 5.4891797,21.799622 Z"
       id="path8-4"
       style="vector-effect:non-scaling-stroke;fill:none;fill-opacity:1;stroke:#000000;stroke-width:0.359903;stroke-opacity:1;-inkscape-stroke:hairline" />
    <path
       d="m 52.276353,15.566096 h 7.198028 l 3.599009,6.233526 -3.599009,6.233526 h -7.198028 l -3.599012,-6.233526 z"
       id="path9-5"
       style="vector-effect:non-scaling-stroke;fill:none;fill-opacity:1;stroke:#000000;stroke-width:0.359903;stroke-opacity:1;-inkscape-stroke:hairline" />
    <path
       d="m 30.682273,28.033148 h 7.198031 l 3.599009,6.233527 -3.599009,6.233526 h -7.198031 l -3.599009,-6.233526 z"
       id="path11-5"
       style="vector-effect:non-scaling-stroke;fill:none;fill-opacity:1;stroke:#000000;stroke-width:0.359903;stroke-opacity:1;-inkscape-stroke:hairline" />
    <path
       d="m 9.0881966,28.033148 h 7.1980304 l 3.599009,6.233527 -3.599009,6.233526 H 9.0881966 L 5.4891797,34.266675 Z"
       id="path13-1"
       style="vector-effect:non-scaling-stroke;fill:none;fill-opacity:1;stroke:#000000;stroke-width:0.359903;stroke-opacity:1;-inkscape-stroke:hairline" />
    <path
       d="m 52.276353,28.033148 h 7.198028 l 3.599009,6.233527 -3.599009,6.233526 h -7.198028 l -3.599012,-6.233526 z"
       id="path14-7"
       style="vector-effect:non-scaling-stroke;fill:none;fill-opacity:1;stroke:#000000;stroke-width:0.359903;stroke-opacity:1;-inkscape-stroke:hairline" />
    <path
       d="m 19.885236,9.3325706 h 7.198028 l 3.599009,6.2335254 -3.599009,6.233526 h -7.198028 l -3.599009,-6.233526 z"
       id="path16-1"
       style="vector-effect:non-scaling-stroke;fill:none;fill-opacity:1;stroke:#000000;stroke-width:0.359903;stroke-opacity:1;-inkscape-stroke:hairline" />
    <path
       d="m 41.479313,9.3325706 h 7.198028 l 3.599012,6.2335254 -3.599012,6.233526 h -7.198028 l -3.599009,-6.233526 z"
       id="path19-1"
       style="vector-effect:non-scaling-stroke;fill:none;fill-opacity:1;stroke:#000000;stroke-width:0.359903;stroke-opacity:1;-inkscape-stroke:hairline" />
    <path
       d="m 41.479313,34.266675 h 7.198028 l 3.599012,6.233526 -3.599012,6.233526 h -7.198028 l -3.599009,-6.233526 z"
       id="path24-5"
       style="vector-effect:non-scaling-stroke;fill:none;fill-opacity:1;stroke:#000000;stroke-width:0.359903;stroke-opacity:1;-inkscape-stroke:hairline" />
    <path
       d="m 30.682273,3.0990482 h 7.198031 l 3.599009,6.2335224 -3.599009,6.2335254 H 30.682273 L 27.083264,9.3325706 Z"
       id="path26-2"
       style="vector-effect:non-scaling-stroke;fill:none;fill-opacity:1;stroke:#000000;stroke-width:0.359903;stroke-opacity:1;-inkscape-stroke:hairline" />
    <path
       d="m 30.682273,40.500201 h 7.198031 l 3.599009,6.233526 -3.599009,6.233526 h -7.198031 l -3.599009,-6.233526 z"
       id="path31-7"
       style="vector-effect:non-scaling-stroke;fill:none;fill-opacity:1;stroke:#000000;stroke-width:0.359903;stroke-opacity:1;-inkscape-stroke:hairline" />
    <path
       d="m 9.0881966,40.500201 h 7.1980304 l 3.599009,6.233526 -3.599009,6.233526 H 9.0881966 L 5.4891797,46.733727 Z"
       id="path33-6"
       style="vector-effect:non-scaling-stroke;fill:none;fill-opacity:1;stroke:#000000;stroke-width:0.359903;stroke-opacity:1;-inkscape-stroke:hairline" />
    <path
       d="m 52.276353,40.500201 h 7.198028 l 3.599009,6.233526 -3.599009,6.233526 h -7.198028 l -3.599012,-6.233526 z"
       id="path34-1"
       style="vector-effect:non-scaling-stroke;fill:none;fill-opacity:1;stroke:#000000;stroke-width:0.359903;stroke-opacity:1;-inkscape-stroke:hairline" />
    <path
       d="m 19.885236,46.733727 h 7.198028 l 3.599009,6.233526 -3.599009,6.233526 h -7.198028 l -3.599009,-6.233526 z"
       id="path41-4"
       style="vector-effect:non-scaling-stroke;fill:none;fill-opacity:1;stroke:#000000;stroke-width:0.359903;stroke-opacity:1;-inkscape-stroke:hairline" />
    <path
       d="m 41.479313,46.733727 h 7.198028 l 3.599012,6.233526 -3.599012,6.233526 h -7.198028 l -3.599009,-6.233526 z"
       id="path44-2"
       style="vector-effect:non-scaling-stroke;fill:none;fill-opacity:1;stroke:#000000;stroke-width:0.359903;stroke-opacity:1;-inkscape-stroke:hairline" />
    <path
       d="m 30.682273,52.967253 h 7.198031 l 3.599009,6.233526 -3.599009,6.233527 h -7.198031 l -3.599009,-6.233527 z"
       id="path51-3"
       style="vector-effect:non-scaling-stroke;fill:none;fill-opacity:1;stroke:#000000;stroke-width:0.359903;stroke-opacity:1;-inkscape-stroke:hairline" />
    <path
       d="m 30.535536,15.610375 h 7.198028 l 3.599009,6.233527 -3.599009,6.233526 h -7.198028 l -3.599009,-6.233526 z"
       id="path6-6"
       style="vector-effect:non-scaling-stroke;fill:none;fill-opacity:1;stroke:#000000;stroke-width:0.359903;stroke-opacity:1;-inkscape-stroke:hairline" />
    <path
       d="m 19.738496,34.310955 h 7.198031 l 3.599009,6.233484 -3.599009,6.233494 h -7.198031 l -3.599009,-6.233494 z"
       id="path21-8"
       style="vector-effect:non-scaling-stroke;fill:none;fill-opacity:1;stroke:#000000;stroke-width:0.359903;stroke-opacity:1;-inkscape-stroke:hairline" />
    <path
       style="fill:#ff00ff;stroke:#000000;stroke-width:1.45216;stroke-opacity:1"
       d="M 29.331175,94.001377 C 25.978037,88.140848 23.23456,82.869178 23.23456,82.286555 c 0,-0.582622 2.777256,-5.932326 6.17168,-11.888232 l 6.17168,-10.828919 h 12.34336 12.34336 l 6.404772,11.235552 6.404774,11.235551 -5.916361,10.894468 -5.916362,10.894465 -12.906836,0.41372 -12.906837,0.41373 z"
       id="path57"
       transform="scale(0.26458333)" />
    <path
       style="fill:#ff00ff;stroke:#000000;stroke-width:1.45216;stroke-opacity:1"
       d="m 28.953869,140.53974 -6.228963,-10.4849 5.938095,-10.93446 5.938096,-10.93446 13.040499,-0.41549 13.040497,-0.41549 5.599914,9.85453 c 3.079952,5.41999 5.824834,10.36592 6.099737,10.99096 0.274902,0.62503 -2.292158,6.01618 -5.704577,11.98032 l -6.2044,10.84389 H 47.8278 35.182834 Z"
       id="path58"
       transform="scale(0.26458333)" />
    <path
       style="fill:#ff00ff;stroke:#000000;stroke-width:1.45216;stroke-opacity:1"
       d="m 29.332127,188.22883 c -3.353662,-5.8944 -6.097567,-11.14326 -6.097567,-11.66414 0,-0.52087 2.777256,-5.83855 6.17168,-11.81704 l 6.17168,-10.87 12.148919,0.3887 12.148919,0.38869 6.480695,11.22698 6.480694,11.22698 -6.21214,10.91846 -6.21214,10.91846 H 47.92128 35.429694 Z"
       id="path59"
       transform="scale(0.26458333)" />
    <path
       style="fill:#ff00ff;stroke:#000000;stroke-width:1.45216;stroke-opacity:1"
       d="m 69.879703,211.26495 c -3.415759,-6.00354 -5.996296,-11.39468 -5.734527,-11.98032 0.26177,-0.58563 2.982706,-5.47573 6.046526,-10.86687 l 5.570582,-9.80208 h 12.880403 12.880403 l 5.8727,10.05544 c 3.22998,5.5305 5.87269,10.70087 5.87269,11.48972 0,0.78885 -2.67038,6.06598 -5.93417,11.72696 l -5.93417,10.29268 H 88.745155 76.090174 Z"
       id="path60"
       transform="scale(0.26458333)" />
    <path
       style="fill:#ff00ff;stroke:#000000;stroke-width:1.45216;stroke-opacity:1"
       d="m 151.32458,211.21065 -6.23477,-10.939 6.18927,-10.87827 6.18928,-10.87828 13.05369,0.41333 13.05369,0.41333 6.11995,10.38849 6.11995,10.38848 -6.45722,11.03088 -6.45722,11.03087 -12.67092,-0.0154 -12.67092,-0.0154 z"
       id="path61"
       transform="scale(0.26458333)" />
    <path
       style="fill:#ff00ff;stroke:#000000;stroke-width:1.45216;stroke-opacity:1"
       d="m 197.87979,197.13072 c -0.78195,-0.99836 -3.77118,-6.06939 -6.64272,-11.26896 l -5.22097,-9.45377 6.51436,-11.23951 6.51435,-11.23952 h 12.16839 12.16838 l 6.13064,10.52816 c 3.37185,5.79049 6.15114,11.20787 6.17619,12.03863 0.0251,0.83076 -2.70606,6.2219 -6.06916,11.98032 l -6.11472,10.46985 h -12.10149 c -7.95483,0 -12.58867,-0.62199 -13.52325,-1.8152 z"
       id="path62"
       transform="scale(0.26458333)" />
    <path
       style="fill:#ff00ff;stroke:#000000;stroke-width:1.45216;stroke-opacity:1"
       d="m 192.09231,140.24189 -6.12753,-10.7519 6.12753,-10.98375 6.12753,-10.98374 12.52859,-0.0313 c 14.04189,-0.0351 13.03376,-0.67517 20.53593,13.03811 l 5.16384,9.43904 -6.04474,10.51185 -6.04474,10.51186 -13.06944,8.8e-4 -13.06944,8.9e-4 z"
       id="path63"
       transform="scale(0.26458333)" />
    <path
       style="fill:#ff00ff;stroke:#000000;stroke-width:1.45216;stroke-opacity:1"
       d="m 197.88353,102.74032 c -0.77991,-0.99836 -3.82134,-5.969877 -6.75873,-11.047818 l -5.3407,-9.232617 6.71892,-11.460662 6.71892,-11.460663 h 12.07503 12.07503 l 6.54436,11.25424 6.54437,11.25424 -5.17011,9.43904 c -7.48617,13.66745 -6.57097,13.06944 -20.00134,13.06944 -7.86581,0 -12.47532,-0.62415 -13.40575,-1.8152 z"
       id="path64"
       transform="scale(0.26458333)" />
    <path
       style="fill:#ff00ff;stroke:#000000;stroke-width:1.45216;stroke-opacity:1"
       d="m 157.22305,79.50576 c -0.77991,-0.99836 -3.82396,-5.97435 -6.76455,-11.057757 l -5.34654,-9.242558 6.25161,-11.087682 6.25161,-11.087683 12.52168,-0.417289 12.52168,-0.41729 6.16192,10.58241 c 3.38905,5.820325 6.16191,11.235881 6.16191,12.034569 0,0.798688 -2.75878,6.189832 -6.13063,11.98032 l -6.13064,10.52816 h -12.04002 c -7.90764,0 -12.52671,-0.623014 -13.45803,-1.8152 z"
       id="path65"
       transform="scale(0.26458333)" />
    <path
       style="fill:#ff00ff;stroke:#000000;stroke-width:1.45216;stroke-opacity:1"
       d="M 70.06672,70.461198 C 66.672296,64.505292 63.89504,59.263369 63.89504,58.81248 c 0,-0.450888 2.777256,-5.692811 6.17168,-11.648717 l 6.17168,-10.828919 12.417474,-0.01542 12.417476,-0.01542 6.26548,11.012213 c 4.53067,7.96312 5.91743,11.697117 5.00844,13.485832 -0.69136,1.360491 -3.54418,6.526057 -6.33959,11.479036 l -5.08256,9.00542 -12.34336,0.0018 -12.34336,0.0018 z"
       id="path66"
       transform="scale(0.26458333)" />
    <path
       style="fill:#ff00ff;stroke:#000000;stroke-width:1.45216;stroke-opacity:1"
       d="m 110.38099,140.16393 -6.0535,-10.96624 6.2857,-10.85112 6.28569,-10.85111 12.64235,-0.0178 12.64234,-0.0178 5.8727,10.05544 c 3.22998,5.5305 5.8599,10.92164 5.84426,11.98032 -0.0156,1.05869 -2.49953,6.17245 -5.51976,11.36392 l -5.49134,9.43904 -13.22747,0.4158 -13.22747,0.4158 z"
       id="path67"
       transform="scale(0.26458333)" />
  </g>
</svg>
