<?xml version="1.0" encoding="UTF-8" standalone="no"?>
<!-- Created with Inkscape (http://www.inkscape.org/) -->

<svg
   width="256"
   height="256"
   viewBox="0 0 67.733334 67.733334"
   version="1.1"
   id="svg1"
   inkscape:version="1.4 (86a8ad7, 2024-10-11)"
   sodipodi:docname="12.svg"
   inkscape:export-filename="12.png"
   inkscape:export-xdpi="47.393879"
   inkscape:export-ydpi="47.393879"
   xmlns:inkscape="http://www.inkscape.org/namespaces/inkscape"
   xmlns:sodipodi="http://sodipodi.sourceforge.net/DTD/sodipodi-0.dtd"
   xmlns="http://www.w3.org/2000/svg"
   xmlns:svg="http://www.w3.org/2000/svg">
  <sodipodi:namedview
     id="namedview1"
     pagecolor="#ffffff"
     bordercolor="#000000"
     borderopacity="0.25"
     inkscape:showpageshadow="2"
     inkscape:pageopacity="0.0"
     inkscape:pagecheckerboard="0"
     inkscape:deskcolor="#d1d1d1"
     inkscape:document-units="mm"
     inkscape:zoom="0.68862935"
     inkscape:cx="410.96128"
     inkscape:cy="507.52992"
     inkscape:window-width="1147"
     inkscape:window-height="1211"
     inkscape:window-x="1839"
     inkscape:window-y="81"
     inkscape:window-maximized="0"
     inkscape:current-layer="layer1"
     inkscape:export-bgcolor="#ffffff00" />
  <defs
     id="defs1" />
  <g
     inkscape:label="Layer 1"
     inkscape:groupmode="layer"
     id="layer1">
    <path
       d="m 9.0881966,15.566096 h 7.1980304 l 3.599009,6.233526 -3.599009,6.233526 H 9.0881966 L 5.4891797,21.799622 Z"
       id="path8-4"
       style="vector-effect:non-scaling-stroke;fill:none;fill-opacity:1;stroke:#000000;stroke-width:0.359903;stroke-opacity:1;-inkscape-stroke:hairline" />
    <path
       d="m 52.276353,15.566096 h 7.198028 l 3.599009,6.233526 -3.599009,6.233526 h -7.198028 l -3.599012,-6.233526 z"
       id="path9-5"
       style="vector-effect:non-scaling-stroke;fill:none;fill-opacity:1;stroke:#000000;stroke-width:0.359903;stroke-opacity:1;-inkscape-stroke:hairline" />
    <path
       d="m 30.682273,28.033148 h 7.198031 l 3.599009,6.233527 -3.599009,6.233526 h -7.198031 l -3.599009,-6.233526 z"
       id="path11-5"
       style="vector-effect:non-scaling-stroke;fill:none;fill-opacity:1;stroke:#000000;stroke-width:0.359903;stroke-opacity:1;-inkscape-stroke:hairline" />
    <path
       d="m 9.0881966,28.033148 h 7.1980304 l 3.599009,6.233527 -3.599009,6.233526 H 9.0881966 L 5.4891797,34.266675 Z"
       id="path13-1"
       style="vector-effect:non-scaling-stroke;fill:none;fill-opacity:1;stroke:#000000;stroke-width:0.359903;stroke-opacity:1;-inkscape-stroke:hairline" />
    <path
       d="m 52.276353,28.033148 h 7.198028 l 3.599009,6.233527 -3.599009,6.233526 h -7.198028 l -3.599012,-6.233526 z"
       id="path14-7"
       style="vector-effect:non-scaling-stroke;fill:none;fill-opacity:1;stroke:#000000;stroke-width:0.359903;stroke-opacity:1;-inkscape-stroke:hairline" />
    <path
       d="m 19.885236,9.3325706 h 7.198028 l 3.599009,6.2335254 -3.599009,6.233526 h -7.198028 l -3.599009,-6.233526 z"
       id="path16-1"
       style="vector-effect:non-scaling-stroke;fill:none;fill-opacity:1;stroke:#000000;stroke-width:0.359903;stroke-opacity:1;-inkscape-stroke:hairline" />
    <path
       d="m 41.479313,9.3325706 h 7.198028 l 3.599012,6.2335254 -3.599012,6.233526 h -7.198028 l -3.599009,-6.233526 z"
       id="path19-1"
       style="vector-effect:non-scaling-stroke;fill:none;fill-opacity:1;stroke:#000000;stroke-width:0.359903;stroke-opacity:1;-inkscape-stroke:hairline" />
    <path
       d="m 41.479313,34.266675 h 7.198028 l 3.599012,6.233526 -3.599012,6.233526 h -7.198028 l -3.599009,-6.233526 z"
       id="path24-5"
       style="vector-effect:non-scaling-stroke;fill:none;fill-opacity:1;stroke:#000000;stroke-width:0.359903;stroke-opacity:1;-inkscape-stroke:hairline" />
    <path
       d="m 30.682273,3.0990482 h 7.198031 l 3.599009,6.2335224 -3.599009,6.2335254 H 30.682273 L 27.083264,9.3325706 Z"
       id="path26-2"
       style="vector-effect:non-scaling-stroke;fill:none;fill-opacity:1;stroke:#000000;stroke-width:0.359903;stroke-opacity:1;-inkscape-stroke:hairline" />
    <path
       d="m 30.682273,40.500201 h 7.198031 l 3.599009,6.233526 -3.599009,6.233526 h -7.198031 l -3.599009,-6.233526 z"
       id="path31-7"
       style="vector-effect:non-scaling-stroke;fill:none;fill-opacity:1;stroke:#000000;stroke-width:0.359903;stroke-opacity:1;-inkscape-stroke:hairline" />
    <path
       d="m 9.0881966,40.500201 h 7.1980304 l 3.599009,6.233526 -3.599009,6.233526 H 9.0881966 L 5.4891797,46.733727 Z"
       id="path33-6"
       style="vector-effect:non-scaling-stroke;fill:none;fill-opacity:1;stroke:#000000;stroke-width:0.359903;stroke-opacity:1;-inkscape-stroke:hairline" />
    <path
       d="m 52.276353,40.500201 h 7.198028 l 3.599009,6.233526 -3.599009,6.233526 h -7.198028 l -3.599012,-6.233526 z"
       id="path34-1"
       style="vector-effect:non-scaling-stroke;fill:none;fill-opacity:1;stroke:#000000;stroke-width:0.359903;stroke-opacity:1;-inkscape-stroke:hairline" />
    <path
       d="m 19.885236,46.733727 h 7.198028 l 3.599009,6.233526 -3.599009,6.233526 h -7.198028 l -3.599009,-6.233526 z"
       id="path41-4"
       style="vector-effect:non-scaling-stroke;fill:none;fill-opacity:1;stroke:#000000;stroke-width:0.359903;stroke-opacity:1;-inkscape-stroke:hairline" />
    <path
       d="m 41.479313,46.733727 h 7.198028 l 3.599012,6.233526 -3.599012,6.233526 h -7.198028 l -3.599009,-6.233526 z"
       id="path44-2"
       style="vector-effect:non-scaling-stroke;fill:none;fill-opacity:1;stroke:#000000;stroke-width:0.359903;stroke-opacity:1;-inkscape-stroke:hairline" />
    <path
       d="m 30.682273,52.967253 h 7.198031 l 3.599009,6.233526 -3.599009,6.233527 h -7.198031 l -3.599009,-6.233527 z"
       id="path51-3"
       style="vector-effect:non-scaling-stroke;fill:none;fill-opacity:1;stroke:#000000;stroke-width:0.359903;stroke-opacity:1;-inkscape-stroke:hairline" />
    <path
       d="m 30.535536,15.610375 h 7.198028 l 3.599009,6.233527 -3.599009,6.233526 h -7.198028 l -3.599009,-6.233526 z"
       id="path6-6"
       style="vector-effect:non-scaling-stroke;fill:none;fill-opacity:1;stroke:#000000;stroke-width:0.359903;stroke-opacity:1;-inkscape-stroke:hairline" />
    <path
       d="m 19.738496,34.310955 h 7.198031 l 3.599009,6.233484 -3.599009,6.233494 h -7.198031 l -3.599009,-6.233494 z"
       id="path21-8"
       style="vector-effect:non-scaling-stroke;fill:none;fill-opacity:1;stroke:#000000;stroke-width:0.359903;stroke-opacity:1;-inkscape-stroke:hairline" />
    <path
       style="fill:#ff6600;stroke:#000000;stroke-width:1.45216;stroke-opacity:1"
       d="m 29.332127,188.22883 c -3.353662,-5.8944 -6.097567,-11.14326 -6.097567,-11.66414 0,-0.52087 2.777256,-5.83855 6.17168,-11.81704 l 6.17168,-10.87 12.148919,0.3887 12.148919,0.38869 6.480695,11.22698 6.480694,11.22698 -6.21214,10.91846 -6.21214,10.91846 H 47.92128 35.429694 Z"
       id="path67"
       transform="scale(0.26458333)" />
    <path
       style="fill:#ff6600;stroke:#000000;stroke-width:1.45216;stroke-opacity:1"
       d="m 71.15584,166.67148 c -2.795408,-4.95298 -5.634105,-10.0869 -6.308216,-11.40872 -0.867828,-1.70166 0.616022,-5.63433 5.08256,-13.47041 l 6.308216,-11.06711 12.34336,-0.006 12.34336,-0.006 5.80864,10.51845 c 3.19475,5.78514 5.80864,11.17191 5.80864,11.9706 0,0.79869 -2.61389,6.18546 -5.80864,11.97061 l -5.80864,10.51844 -12.34336,-0.008 -12.34336,-0.008 z"
       id="path68"
       transform="scale(0.26458333)" />
    <path
       style="fill:#ff6600;stroke:#000000;stroke-width:1.45216;stroke-opacity:1"
       d="m 69.70368,116.89888 -6.012075,-10.8912 6.012075,-10.8912 6.012075,-10.8912 h 12.678796 12.678799 l 6.09756,10.717089 c 3.35366,5.894401 6.09757,11.171291 6.09757,11.726441 0,0.55514 -2.68836,5.53453 -5.97414,11.06531 l -5.97413,10.05596 H 88.517982 75.715755 Z"
       id="path69"
       transform="scale(0.26458333)" />
    <path
       style="fill:#ff6600;stroke:#000000;stroke-width:1.45216;stroke-opacity:1"
       d="M 29.331175,94.001377 C 25.978037,88.140848 23.23456,82.869178 23.23456,82.286555 c 0,-0.582622 2.777256,-5.932326 6.17168,-11.888232 l 6.17168,-10.828919 h 12.34336 12.34336 l 6.404772,11.235552 6.404774,11.235551 -5.916361,10.894468 -5.916362,10.894465 -12.906836,0.41372 -12.906837,0.41373 z"
       id="path70"
       transform="scale(0.26458333)" />
    <path
       style="fill:#ff6600;stroke:#000000;stroke-width:1.45216;stroke-opacity:1"
       d="m 110.48969,94.262837 c -3.26379,-5.660976 -5.93417,-10.802264 -5.93417,-11.425085 0,-0.622823 2.6984,-5.793195 5.99644,-11.489718 L 116.5484,60.99072 h 12.75666 12.75666 l 5.57058,9.80208 c 3.06382,5.391144 5.78476,10.281237 6.04652,10.866872 0.26177,0.585635 -2.31876,5.976779 -5.73452,11.98032 l -6.21047,10.915528 h -12.65498 -12.65499 z m 18.02647,-34.806083 c -7.98688,-0.444336 -13.7532,-0.93444 -12.81404,-1.08912 0.99936,-0.164593 -0.99587,-5.052853 -4.81075,-11.786226 l -6.5183,-11.504993 6.2629,-10.988065 6.26291,-10.988066 12.57608,-0.01542 12.57608,-0.01542 6.44479,11.15685 6.4448,11.15685 -5.05288,8.482294 c -2.77908,4.665261 -5.45722,10.263599 -5.95143,12.44075 l -0.89856,3.958456 z"
       id="path71"
       transform="scale(0.26458333)" />
    <path
       style="fill:#ff6600;stroke:#000000;stroke-width:1.45216;stroke-opacity:1"
       d="m 117.14504,54.81904 c -1.09947,-1.797048 -4.04161,-6.990919 -6.53809,-11.541936 l -4.53906,-8.274576 5.93646,-10.296641 5.93645,-10.296641 11.80605,0.419217 11.80605,0.419217 5.65162,9.823579 5.65162,9.82358 -5.63527,11.496769 -5.63527,11.496771 -11.22076,0.09901 c -10.13135,0.0894 -11.41485,-0.218216 -13.2198,-3.168349 z"
       id="path72"
       transform="scale(0.26458333)" />
    <path
       style="fill:#ff6600;stroke:#000000;stroke-width:1.45216;stroke-opacity:1"
       d="m 151.38768,116.97015 c -3.39442,-5.97781 -6.17168,-11.15917 -6.17168,-11.51413 0,-0.35495 2.67038,-5.27708 5.93417,-10.938056 l 5.93417,-10.292684 h 12.96526 c 12.92663,0 12.97336,0.01334 15.68796,4.477132 1.70147,2.797856 3.1021,3.863252 3.73422,2.840459 0.55634,-0.900169 -0.0649,-3.279505 -1.38054,-5.287413 -2.32316,-3.545588 -2.19731,-3.982928 4.36932,-15.183819 l 6.76138,-11.533079 h 12.07503 12.07503 l 6.54436,11.25424 6.54437,11.25424 -5.17011,9.43904 c -7.49259,13.67917 -6.55201,13.06944 -20.16093,13.06944 h -12.14734 l -3.89249,-6.166115 c -4.50294,-7.133106 -6.5507,-4.931402 -2.22784,2.395305 l 2.88729,4.89358 -6.06626,10.69286 -6.06625,10.69285 -13.02872,0.38745 -13.02872,0.38745 z"
       id="path73"
       transform="scale(0.26458333)" />
    <path
       style="fill:#ff6600;stroke:#000000;stroke-width:1.45216;stroke-opacity:1"
       d="m 198.94592,101.80477 c 0,-0.71422 -1.79705,-3.269882 -3.99344,-5.679247 -2.19639,-2.409366 -4.19765,-5.214889 -4.44724,-6.234495 -1.94611,-7.950097 -1.59467,-9.731113 3.69697,-18.735188 l 5.54726,-9.43904 h 11.51573 11.51573 l 6.01353,10.16512 6.01353,10.16512 -4.33609,7.98688 c -6.49879,11.97047 -8.24744,13.06944 -20.79566,13.06944 -5.90167,0 -10.73032,-0.58436 -10.73032,-1.29859 z"
       id="path74"
       transform="scale(0.26458333)" />
    <path
       style="fill:#ff6600;stroke:#000000;stroke-width:1.45216;stroke-opacity:1"
       d="m 157.21931,173.89616 c -0.78195,-0.99836 -3.82474,-6.16517 -6.76175,-11.48181 l -5.34,-9.66661 6.28182,-10.66363 6.28182,-10.66363 12.48867,-0.41729 12.48867,-0.41729 6.06625,10.52177 c 3.33644,5.78697 6.18426,10.93379 6.32849,11.43738 0.14423,0.5036 -2.58875,5.92203 -6.07329,12.04097 l -6.33553,11.12534 h -12.0017 c -7.87499,0 -12.49056,-0.62414 -13.42345,-1.8152 z"
       id="path75"
       transform="scale(0.26458333)" />
    <path
       style="fill:#ff6600;stroke:#000000;stroke-width:1.45216;stroke-opacity:1"
       d="m 197.87979,197.13072 c -0.78195,-0.99836 -3.77118,-6.06939 -6.64272,-11.26896 l -5.22097,-9.45377 6.51436,-11.23951 6.51435,-11.23952 h 12.16839 12.16838 l 6.13064,10.52816 c 3.37185,5.79049 6.15114,11.20787 6.17619,12.03863 0.0251,0.83076 -2.70606,6.2219 -6.06916,11.98032 l -6.11472,10.46985 h -12.10149 c -7.95483,0 -12.58867,-0.62199 -13.52325,-1.8152 z"
       id="path76"
       transform="scale(0.26458333)" />
    <path
       style="fill:#ff6600;stroke:#000000;stroke-width:1.45216;stroke-opacity:1"
       d="m 110.58185,187.79094 -6.31703,-11.06174 3.30494,-5.95452 c 1.81771,-3.27499 4.83194,-8.40504 6.69828,-11.40012 l 3.39335,-5.4456 h 12.02079 12.02078 l 6.62648,11.3384 6.62648,11.3384 -6.45244,11.17008 -6.45244,11.17008 -12.57608,-0.0466 -12.57608,-0.0466 z"
       id="path77"
       transform="scale(0.26458333)" />
    <path
       style="fill:#ff6600;stroke:#000000;stroke-width:1.45216;stroke-opacity:1"
       d="m 110.50654,234.60642 -6.24222,-10.90998 6.31728,-10.90529 6.31728,-10.90529 12.64235,-0.0178 12.64234,-0.0178 5.8727,10.05544 c 3.22998,5.5305 5.8599,10.92164 5.84426,11.98032 -0.0156,1.05869 -2.49953,6.17245 -5.51976,11.36392 l -5.49134,9.43904 -13.07034,0.41372 -13.07034,0.41373 z"
       id="path78"
       transform="scale(0.26458333)" />
    <path
       style="fill:#ffffff;stroke-width:1.45216"
       d="m 28.702479,140.24365 -6.149362,-10.82982 6.268858,-10.61396 6.268857,-10.61395 h 12.884406 12.884407 l 6.100105,10.34755 6.100104,10.34755 -6.075285,10.70877 -6.075287,10.70877 -13.02872,0.38745 -13.028722,0.38745 z"
       id="path1"
       transform="scale(0.26458333)" />
    <path
       style="fill:#ffffff;stroke-width:1.45216"
       d="M 70.358826,70.7928 C 66.986974,65.002312 64.207685,59.582004 64.182627,58.747673 64.157569,57.91334 66.93434,52.522196 70.35323,46.767353 L 76.569394,36.304 h 12.000053 c 13.444143,0 12.526983,-0.598927 20.013653,13.06944 l 5.17011,9.43904 -6.54437,11.25424 -6.54436,11.25424 H 88.576971 76.489464 Z"
       id="path2"
       transform="scale(0.26458333)" />
    <path
       style="fill:#ffffff;stroke-width:1.45216"
       d="m 75.172274,220.36528 c -0.781959,-0.99836 -3.729265,-6.06277 -6.549568,-11.25424 l -5.127824,-9.43904 6.06725,-10.16512 6.06725,-10.16512 13.010909,-0.38486 13.010909,-0.38486 6.24469,10.82042 6.24469,10.82041 -6.24469,10.93719 -6.24469,10.93718 -12.52859,0.0466 c -8.345729,0.0311 -13.003262,-0.55941 -13.950336,-1.76858 z"
       id="path3"
       transform="scale(0.26458333)" />
    <path
       style="fill:#ffffff;stroke-width:1.45216"
       d="m 114.96602,147.75728 c -1.0999,-1.79705 -3.9897,-6.60082 -6.42178,-10.67506 l -4.42197,-7.4077 6.43775,-11.10734 6.43775,-11.10734 12.65696,0.0154 12.65695,0.0154 6.2671,10.99538 6.2671,10.99538 -6.16304,10.7716 -6.16303,10.7716 h -12.77699 c -11.68956,0 -12.94719,-0.27808 -14.7768,-3.26736 z"
       id="path4"
       transform="scale(0.26458333)" />
    <path
       style="fill:#ffffff;stroke-width:1.45216"
       d="m 151.47137,70.02888 -6.39767,-11.292082 6.54299,-11.216399 6.54299,-11.216399 12.40624,0.04662 12.40624,0.04662 6.30553,11.041937 c 4.45682,7.804573 5.94697,11.744789 5.08256,13.439212 -0.67263,1.3185 -3.51012,6.449712 -6.30553,11.402691 l -5.08256,9.005419 -12.55155,0.01723 -12.55156,0.01723 z"
       id="path5"
       transform="scale(0.26458333)" />
    <path
       style="fill:#ffffff;stroke-width:1.45216"
       d="m 151.87625,211.8878 c -3.26379,-5.66098 -5.93417,-10.93811 -5.93417,-11.72696 0,-0.78885 2.64271,-5.95922 5.8727,-11.48972 l 5.87269,-10.05544 h 12.90367 12.90367 l 6.01076,10.88883 6.01077,10.88883 -6.19798,10.89357 -6.19797,10.89357 h -12.65498 -12.65499 z"
       id="path6"
       transform="scale(0.26458333)" />
    <path
       style="fill:#ffffff;stroke-width:1.45216"
       d="m 192.47526,140.9692 c -3.22999,-5.5305 -5.8727,-10.70087 -5.8727,-11.48972 0,-0.78885 2.67038,-6.06598 5.93417,-11.72696 l 5.93417,-10.29268 h 12.68494 12.68493 l 6.06761,10.60483 c 3.33719,5.83265 6.06762,11.00302 6.06762,11.48971 0,0.48669 -2.67038,5.5166 -5.93417,11.17758 l -5.93417,10.29268 H 211.2278 198.34795 Z"
       id="path7"
       transform="scale(0.26458333)" />
  </g>
</svg>
