<?xml version="1.0" encoding="UTF-8" standalone="no"?>
<!-- Created with Inkscape (http://www.inkscape.org/) -->

<svg
   width="256"
   height="256"
   viewBox="0 0 67.733334 67.733334"
   version="1.1"
   id="svg1"
   inkscape:version="1.4 (86a8ad7, 2024-10-11)"
   sodipodi:docname="14.svg"
   inkscape:export-filename="14.png"
   inkscape:export-xdpi="47.393879"
   inkscape:export-ydpi="47.393879"
   xmlns:inkscape="http://www.inkscape.org/namespaces/inkscape"
   xmlns:sodipodi="http://sodipodi.sourceforge.net/DTD/sodipodi-0.dtd"
   xmlns="http://www.w3.org/2000/svg"
   xmlns:svg="http://www.w3.org/2000/svg">
  <sodipodi:namedview
     id="namedview1"
     pagecolor="#ffffff"
     bordercolor="#000000"
     borderopacity="0.25"
     inkscape:showpageshadow="2"
     inkscape:pageopacity="0.0"
     inkscape:pagecheckerboard="0"
     inkscape:deskcolor="#d1d1d1"
     inkscape:document-units="mm"
     inkscape:zoom="0.69"
     inkscape:cx="411.5942"
     inkscape:cy="507.97101"
     inkscape:window-width="1147"
     inkscape:window-height="1211"
     inkscape:window-x="1466"
     inkscape:window-y="165"
     inkscape:window-maximized="0"
     inkscape:current-layer="layer1"
     inkscape:export-bgcolor="#ffffff00" />
  <defs
     id="defs1" />
  <g
     inkscape:label="Layer 1"
     inkscape:groupmode="layer"
     id="layer1">
    <path
       d="m 9.0881966,15.566096 h 7.1980304 l 3.599009,6.233526 -3.599009,6.233526 H 9.0881966 L 5.4891797,21.799622 Z"
       id="path8-4"
       style="vector-effect:non-scaling-stroke;fill:none;fill-opacity:1;stroke:#000000;stroke-width:0.359903;stroke-opacity:1;-inkscape-stroke:hairline" />
    <path
       d="m 52.276353,15.566096 h 7.198028 l 3.599009,6.233526 -3.599009,6.233526 h -7.198028 l -3.599012,-6.233526 z"
       id="path9-5"
       style="vector-effect:non-scaling-stroke;fill:none;fill-opacity:1;stroke:#000000;stroke-width:0.359903;stroke-opacity:1;-inkscape-stroke:hairline" />
    <path
       d="m 30.682273,28.033148 h 7.198031 l 3.599009,6.233527 -3.599009,6.233526 h -7.198031 l -3.599009,-6.233526 z"
       id="path11-5"
       style="vector-effect:non-scaling-stroke;fill:none;fill-opacity:1;stroke:#000000;stroke-width:0.359903;stroke-opacity:1;-inkscape-stroke:hairline" />
    <path
       d="m 9.0881966,28.033148 h 7.1980304 l 3.599009,6.233527 -3.599009,6.233526 H 9.0881966 L 5.4891797,34.266675 Z"
       id="path13-1"
       style="vector-effect:non-scaling-stroke;fill:none;fill-opacity:1;stroke:#000000;stroke-width:0.359903;stroke-opacity:1;-inkscape-stroke:hairline" />
    <path
       d="m 52.276353,28.033148 h 7.198028 l 3.599009,6.233527 -3.599009,6.233526 h -7.198028 l -3.599012,-6.233526 z"
       id="path14-7"
       style="vector-effect:non-scaling-stroke;fill:none;fill-opacity:1;stroke:#000000;stroke-width:0.359903;stroke-opacity:1;-inkscape-stroke:hairline" />
    <path
       d="m 19.885236,9.3325706 h 7.198028 l 3.599009,6.2335254 -3.599009,6.233526 h -7.198028 l -3.599009,-6.233526 z"
       id="path16-1"
       style="vector-effect:non-scaling-stroke;fill:none;fill-opacity:1;stroke:#000000;stroke-width:0.359903;stroke-opacity:1;-inkscape-stroke:hairline" />
    <path
       d="m 41.479313,9.3325706 h 7.198028 l 3.599012,6.2335254 -3.599012,6.233526 h -7.198028 l -3.599009,-6.233526 z"
       id="path19-1"
       style="vector-effect:non-scaling-stroke;fill:none;fill-opacity:1;stroke:#000000;stroke-width:0.359903;stroke-opacity:1;-inkscape-stroke:hairline" />
    <path
       d="m 41.479313,34.266675 h 7.198028 l 3.599012,6.233526 -3.599012,6.233526 h -7.198028 l -3.599009,-6.233526 z"
       id="path24-5"
       style="vector-effect:non-scaling-stroke;fill:none;fill-opacity:1;stroke:#000000;stroke-width:0.359903;stroke-opacity:1;-inkscape-stroke:hairline" />
    <path
       d="m 30.682273,3.0990482 h 7.198031 l 3.599009,6.2335224 -3.599009,6.2335254 H 30.682273 L 27.083264,9.3325706 Z"
       id="path26-2"
       style="vector-effect:non-scaling-stroke;fill:none;fill-opacity:1;stroke:#000000;stroke-width:0.359903;stroke-opacity:1;-inkscape-stroke:hairline" />
    <path
       d="m 30.682273,40.500201 h 7.198031 l 3.599009,6.233526 -3.599009,6.233526 h -7.198031 l -3.599009,-6.233526 z"
       id="path31-7"
       style="vector-effect:non-scaling-stroke;fill:none;fill-opacity:1;stroke:#000000;stroke-width:0.359903;stroke-opacity:1;-inkscape-stroke:hairline" />
    <path
       d="m 9.0881966,40.500201 h 7.1980304 l 3.599009,6.233526 -3.599009,6.233526 H 9.0881966 L 5.4891797,46.733727 Z"
       id="path33-6"
       style="vector-effect:non-scaling-stroke;fill:none;fill-opacity:1;stroke:#000000;stroke-width:0.359903;stroke-opacity:1;-inkscape-stroke:hairline" />
    <path
       d="m 52.276353,40.500201 h 7.198028 l 3.599009,6.233526 -3.599009,6.233526 h -7.198028 l -3.599012,-6.233526 z"
       id="path34-1"
       style="vector-effect:non-scaling-stroke;fill:none;fill-opacity:1;stroke:#000000;stroke-width:0.359903;stroke-opacity:1;-inkscape-stroke:hairline" />
    <path
       d="m 19.885236,46.733727 h 7.198028 l 3.599009,6.233526 -3.599009,6.233526 h -7.198028 l -3.599009,-6.233526 z"
       id="path41-4"
       style="vector-effect:non-scaling-stroke;fill:none;fill-opacity:1;stroke:#000000;stroke-width:0.359903;stroke-opacity:1;-inkscape-stroke:hairline" />
    <path
       d="m 41.479313,46.733727 h 7.198028 l 3.599012,6.233526 -3.599012,6.233526 h -7.198028 l -3.599009,-6.233526 z"
       id="path44-2"
       style="vector-effect:non-scaling-stroke;fill:none;fill-opacity:1;stroke:#000000;stroke-width:0.359903;stroke-opacity:1;-inkscape-stroke:hairline" />
    <path
       d="m 30.682273,52.967253 h 7.198031 l 3.599009,6.233526 -3.599009,6.233527 h -7.198031 l -3.599009,-6.233527 z"
       id="path51-3"
       style="vector-effect:non-scaling-stroke;fill:none;fill-opacity:1;stroke:#000000;stroke-width:0.359903;stroke-opacity:1;-inkscape-stroke:hairline" />
    <path
       d="m 30.535536,15.610375 h 7.198028 l 3.599009,6.233527 -3.599009,6.233526 h -7.198028 l -3.599009,-6.233526 z"
       id="path6-6"
       style="vector-effect:non-scaling-stroke;fill:none;fill-opacity:1;stroke:#000000;stroke-width:0.359903;stroke-opacity:1;-inkscape-stroke:hairline" />
    <path
       d="m 19.738496,34.310955 h 7.198031 l 3.599009,6.233484 -3.599009,6.233494 h -7.198031 l -3.599009,-6.233494 z"
       id="path21-8"
       style="vector-effect:non-scaling-stroke;fill:none;fill-opacity:1;stroke:#000000;stroke-width:0.359903;stroke-opacity:1;-inkscape-stroke:hairline" />
    <path
       style="fill:#800080;stroke:#000000;stroke-width:1.44928;stroke-opacity:1"
       d="m 29.087023,93.662162 c -3.24424,-5.877116 -5.898617,-11.037217 -5.898617,-11.466894 0,-0.429675 2.665073,-5.403735 5.922384,-11.053465 L 35.033174,60.869565 H 47.887442 60.74171 l 5.861029,10.035468 c 3.223565,5.519508 5.861029,10.67961 5.861029,11.466893 0,0.787284 -2.665072,6.053932 -5.922384,11.703662 L 60.619,104.34783 H 47.80232 34.985639 Z"
       id="path107"
       transform="scale(0.26458333)" />
    <path
       style="fill:#800080;stroke:#000000;stroke-width:1.44928;stroke-opacity:1"
       d="m 69.793024,70.044761 -6.293932,-11.021604 3.81934,-6.685492 c 2.100637,-3.67702 4.890653,-8.805056 6.200037,-11.395636 l 2.380698,-4.710145 h 12.587626 12.587627 l 5.98453,10.33674 c 3.29149,5.685206 5.98453,10.980792 5.98453,11.767969 0,0.787175 -2.73846,6.244337 -6.08546,12.127027 l -6.08545,10.6958 -12.392806,-0.04653 -12.392807,-0.04653 z"
       id="path108"
       transform="scale(0.26458333)" />
    <path
       style="fill:#800080;stroke:#000000;stroke-width:1.44928;stroke-opacity:1"
       d="m 111.45832,47.593429 c -3.33346,-5.707671 -6.13396,-11.088106 -6.22334,-11.956522 -0.0894,-0.868414 2.44618,-6.302835 5.63459,-12.076487 l 5.7971,-10.497551 12.64575,-0.0097 12.64575,-0.0097 6.51483,11.129291 6.51483,11.129292 -2.66547,4.450419 c -1.46602,2.44773 -4.44373,7.548245 -6.61714,11.334477 l -3.95166,6.884057 h -12.1172 -12.1172 z"
       id="path109"
       transform="scale(0.26458333)" />
    <path
       style="fill:#800080;stroke:#000000;stroke-width:1.44928;stroke-opacity:1"
       d="m 151.54289,70.057277 c -3.57441,-6.106178 -6.29351,-11.486613 -6.04244,-11.956522 0.25107,-0.469907 3.23399,-5.582639 6.6287,-11.361625 l 6.1722,-10.507246 h 12.11826 12.11827 l 6.52598,11.14834 6.52598,11.14834 -5.24911,9.503835 c -7.59837,13.757318 -6.6288,13.127021 -20.19292,13.127021 h -12.10598 z"
       id="path110"
       transform="scale(0.26458333)" />
    <path
       style="fill:#800080;stroke:#000000;stroke-width:1.44928;stroke-opacity:1"
       d="m 192.19827,93.374936 -6.42328,-10.972888 6.14051,-10.403923 6.14051,-10.403922 13.16025,-0.414976 13.16025,-0.414976 6.04148,10.944454 6.04147,10.944454 -6.27321,10.829558 -6.27321,10.829563 -12.64575,0.0178 -12.64575,0.0178 z"
       id="path111"
       transform="scale(0.26458333)" />
    <path
       style="fill:#800080;stroke:#000000;stroke-width:1.44928;stroke-opacity:1"
       d="m 192.25127,187.5117 -6.39816,-11.03902 6.10145,-10.33779 6.10145,-10.33779 13.00343,-0.4129 13.00344,-0.4129 6.22981,10.88831 6.22982,10.88831 -6.30473,10.88363 -6.30474,10.88363 -12.63181,0.0178 -12.63181,0.0178 z"
       id="path112"
       transform="scale(0.26458333)" />
    <path
       style="fill:#800080;stroke:#000000;stroke-width:1.44928;stroke-opacity:1"
       d="m 151.1134,210.90161 -6.13298,-10.74447 6.24794,-10.58582 6.24794,-10.58581 12.92852,-0.35539 12.92851,-0.35538 6.23229,10.95505 6.23228,10.95505 -6.23228,10.75937 -6.23229,10.75937 -13.04347,-0.0288 -13.04348,-0.0287 z"
       id="path113"
       transform="scale(0.26458333)" />
    <path
       style="fill:#800080;stroke:#000000;stroke-width:1.44928;stroke-opacity:1"
       d="m 116.3273,244.56522 c -0.78041,-0.99638 -3.80794,-6.13645 -6.72784,-11.42238 l -5.30892,-9.61078 6.30269,-10.67907 6.30269,-10.67908 12.47047,-0.41734 12.47047,-0.41734 6.13471,10.50407 c 3.37409,5.77724 6.13471,11.21155 6.13471,12.07623 0,0.86468 -2.79172,6.2713 -6.20381,12.01471 l -6.20382,10.44257 h -11.97622 c -7.85803,0 -12.46413,-0.62294 -13.39513,-1.81159 z"
       id="path114"
       transform="scale(0.26458333)" />
    <path
       style="fill:#800080;stroke:#000000;stroke-width:1.44928;stroke-opacity:1"
       d="m 69.582013,210.89999 -6.041473,-10.94445 6.273208,-10.82956 6.273209,-10.82956 12.617231,-0.0178 12.617232,-0.0178 5.86103,10.03547 c 3.22356,5.5195 5.84826,10.89994 5.83266,11.95652 -0.0156,1.05658 -2.49457,6.16018 -5.5088,11.34134 l -5.48043,9.42029 -13.201199,0.41498 -13.201195,0.41497 z"
       id="path115"
       transform="scale(0.26458333)" />
    <path
       style="fill:#800080;stroke:#000000;stroke-width:1.44928;stroke-opacity:1"
       d="m 29.087023,187.86506 c -3.24424,-5.87712 -5.898617,-11.03722 -5.898617,-11.46689 0,-0.42968 2.665073,-5.40374 5.922384,-11.05347 l 5.922384,-10.27224 h 12.629843 12.629842 l 6.085455,10.6958 c 3.346999,5.88269 6.085454,11.0428 6.085454,11.4669 0,0.4241 -2.665072,5.3936 -5.922384,11.04333 L 60.619,198.55072 H 47.80232 34.985639 Z"
       id="path116"
       transform="scale(0.26458333)" />
    <path
       style="fill:#800080;stroke:#000000;stroke-width:1.44928;stroke-opacity:1"
       d="m 69.790028,164.28424 -6.296928,-11.04729 3.822336,-6.69094 c 2.102284,-3.68001 4.893649,-8.8105 6.203033,-11.40108 l 2.380698,-4.71015 h 12.50663 12.506633 l 2.3807,4.71015 c 1.30938,2.59058 4.1165,7.74971 6.23804,11.46475 l 3.85735,6.7546 -6.25798,10.99902 -6.25797,10.99902 -12.392806,-0.0154 -12.392807,-0.0154 z"
       id="path117"
       transform="scale(0.26458333)" />
    <path
       style="fill:#800080;stroke:#000000;stroke-width:1.44928;stroke-opacity:1"
       d="m 75.747586,127.17391 c -0.780406,-0.99637 -3.845404,-6.20345 -6.811106,-11.57127 l -5.392185,-9.75968 6.197365,-10.892495 6.197365,-10.892494 h 12.466772 12.466773 l 6.08545,10.6958 c 3.347,5.882689 6.08546,11.178279 6.08546,11.767969 0,0.58969 -2.73846,5.88528 -6.08546,11.76797 l -6.08545,10.6958 H 89.019538 c -7.759484,0 -12.343068,-0.62565 -13.271952,-1.8116 z"
       id="path118"
       transform="scale(0.26458333)" />
    <path
       style="fill:#800080;stroke:#000000;stroke-width:1.44928;stroke-opacity:1"
       d="m 151.02752,116.55084 -6.21886,-10.89234 6.14489,-10.800263 6.14489,-10.800266 13.11745,0.01539 13.11744,0.01539 6.23578,10.94061 6.23577,10.940609 -6.23577,10.76536 -6.23578,10.76535 -13.04347,-0.0288 -13.04348,-0.0288 z"
       id="path119"
       transform="scale(0.26458333)" />
    <path
       style="fill:#800080;stroke:#000000;stroke-width:1.44928;stroke-opacity:1"
       d="m 152.02843,164.96829 c -3.37409,-5.77724 -6.13471,-11.21154 -6.13471,-12.07622 0,-0.86469 2.80603,-6.29541 6.23563,-12.06827 l 6.23563,-10.49612 12.29012,0.41587 12.29012,0.41587 6.38321,11.0582 6.38321,11.0582 -6.30378,10.68093 -6.30378,10.68093 -12.47047,0.41734 -12.47047,0.41735 z"
       id="path120"
       transform="scale(0.26458333)" />
    <path
       style="fill:#ffffff;stroke-width:1.44928"
       d="m 29.665379,141.66667 c -3.394711,-5.77899 -6.377625,-10.89172 -6.628697,-11.36163 -0.251073,-0.46991 2.48263,-5.87529 6.074895,-12.01195 l 6.53139,-11.15758 12.552503,0.41775 12.552502,0.41775 6.214783,10.5499 6.214781,10.5499 -6.71191,11.55155 -6.711909,11.55155 H 47.795649 35.837583 Z"
       id="path1"
       transform="scale(0.26458333)" />
    <path
       style="fill:#ffffff;stroke-width:1.44928"
       d="m 109.97407,93.584475 -5.96795,-10.700816 6.37962,-11.007047 6.37962,-11.007047 12.63182,0.01539 12.63181,0.01539 6.18622,10.854174 6.18623,10.854175 -6.18623,10.854174 -6.18622,10.854172 -13.04348,-0.0159 -13.04348,-0.0159 z"
       id="path2"
       transform="scale(0.26458333)" />
    <path
       style="fill:#ffffff;stroke-width:1.44928"
       d="m 110.73655,140.83724 -6.61547,-11.33667 6.47002,-11.1271 6.47001,-11.12709 h 12.5579 12.55791 l 6.08545,10.6958 c 3.347,5.88269 6.08546,11.12112 6.08546,11.64096 0,0.51985 -2.77174,5.80851 -6.15942,11.75258 l -6.15942,10.80741 -12.33848,0.0154 -12.33848,0.0154 z"
       id="path3"
       transform="scale(0.26458333)" />
    <path
       style="fill:#ffffff;stroke-width:1.44928"
       d="m 110.99485,188.27849 c -3.25731,-5.64973 -5.92239,-10.91638 -5.92239,-11.70367 0,-0.78728 2.63747,-5.94738 5.86103,-11.46689 l 5.86103,-10.03547 h 12.85427 12.85427 l 5.92238,10.27224 c 3.25731,5.64973 5.92239,10.66965 5.92239,11.15537 0,0.48573 -2.72501,5.64583 -6.05557,11.4669 l -6.05556,10.58375 h -12.65973 -12.65974 z"
       id="path4"
       transform="scale(0.26458333)" />
    <path
       style="fill:#ffffff;stroke-width:1.44928"
       d="m 195.92511,146.73913 c -1.86263,-2.98913 -4.8722,-8.11136 -6.68794,-11.38274 l -3.30133,-5.94796 6.30744,-11.06564 6.30744,-11.06563 12.5511,-0.0154 12.5511,-0.0154 6.41289,11.10162 6.4129,11.10163 -6.43737,11.36214 -6.43737,11.36214 h -12.14612 -12.14613 z"
       id="path5"
       transform="scale(0.26458333)" />
  </g>
</svg>
