<?xml version="1.0" encoding="UTF-8" standalone="no"?>
<!-- Created with Inkscape (http://www.inkscape.org/) -->

<svg
   width="256"
   height="256"
   viewBox="0 0 67.733334 67.733334"
   version="1.1"
   id="svg1"
   inkscape:version="1.4 (86a8ad7, 2024-10-11)"
   sodipodi:docname="3.svg"
   inkscape:export-filename="3.png"
   inkscape:export-xdpi="47.393879"
   inkscape:export-ydpi="47.393879"
   xmlns:inkscape="http://www.inkscape.org/namespaces/inkscape"
   xmlns:sodipodi="http://sodipodi.sourceforge.net/DTD/sodipodi-0.dtd"
   xmlns="http://www.w3.org/2000/svg"
   xmlns:svg="http://www.w3.org/2000/svg">
  <sodipodi:namedview
     id="namedview1"
     pagecolor="#ffffff"
     bordercolor="#000000"
     borderopacity="0.25"
     inkscape:showpageshadow="2"
     inkscape:pageopacity="0.0"
     inkscape:pagecheckerboard="0"
     inkscape:deskcolor="#d1d1d1"
     inkscape:document-units="mm"
     inkscape:zoom="0.68862935"
     inkscape:cx="410.96128"
     inkscape:cy="507.52992"
     inkscape:window-width="1920"
     inkscape:window-height="991"
     inkscape:window-x="-9"
     inkscape:window-y="-9"
     inkscape:window-maximized="1"
     inkscape:current-layer="layer1"
     inkscape:export-bgcolor="#ffffff00" />
  <defs
     id="defs1" />
  <g
     inkscape:label="Layer 1"
     inkscape:groupmode="layer"
     id="layer1">
    <path
       d="m 9.0881966,15.566096 h 7.1980304 l 3.599009,6.233526 -3.599009,6.233526 H 9.0881966 L 5.4891797,21.799622 Z"
       id="path8-4"
       style="vector-effect:non-scaling-stroke;fill:none;fill-opacity:1;stroke:#000000;stroke-width:0.359903;stroke-opacity:1;-inkscape-stroke:hairline" />
    <path
       d="m 52.276353,15.566096 h 7.198028 l 3.599009,6.233526 -3.599009,6.233526 h -7.198028 l -3.599012,-6.233526 z"
       id="path9-5"
       style="vector-effect:non-scaling-stroke;fill:none;fill-opacity:1;stroke:#000000;stroke-width:0.359903;stroke-opacity:1;-inkscape-stroke:hairline" />
    <path
       d="m 30.682273,28.033148 h 7.198031 l 3.599009,6.233527 -3.599009,6.233526 h -7.198031 l -3.599009,-6.233526 z"
       id="path11-5"
       style="vector-effect:non-scaling-stroke;fill:none;fill-opacity:1;stroke:#000000;stroke-width:0.359903;stroke-opacity:1;-inkscape-stroke:hairline" />
    <path
       d="m 9.0881966,28.033148 h 7.1980304 l 3.599009,6.233527 -3.599009,6.233526 H 9.0881966 L 5.4891797,34.266675 Z"
       id="path13-1"
       style="vector-effect:non-scaling-stroke;fill:none;fill-opacity:1;stroke:#000000;stroke-width:0.359903;stroke-opacity:1;-inkscape-stroke:hairline" />
    <path
       d="m 52.276353,28.033148 h 7.198028 l 3.599009,6.233527 -3.599009,6.233526 h -7.198028 l -3.599012,-6.233526 z"
       id="path14-7"
       style="vector-effect:non-scaling-stroke;fill:none;fill-opacity:1;stroke:#000000;stroke-width:0.359903;stroke-opacity:1;-inkscape-stroke:hairline" />
    <path
       d="m 19.885236,9.3325706 h 7.198028 l 3.599009,6.2335254 -3.599009,6.233526 h -7.198028 l -3.599009,-6.233526 z"
       id="path16-1"
       style="vector-effect:non-scaling-stroke;fill:none;fill-opacity:1;stroke:#000000;stroke-width:0.359903;stroke-opacity:1;-inkscape-stroke:hairline" />
    <path
       d="m 41.479313,9.3325706 h 7.198028 l 3.599012,6.2335254 -3.599012,6.233526 h -7.198028 l -3.599009,-6.233526 z"
       id="path19-1"
       style="vector-effect:non-scaling-stroke;fill:none;fill-opacity:1;stroke:#000000;stroke-width:0.359903;stroke-opacity:1;-inkscape-stroke:hairline" />
    <path
       d="m 41.479313,34.266675 h 7.198028 l 3.599012,6.233526 -3.599012,6.233526 h -7.198028 l -3.599009,-6.233526 z"
       id="path24-5"
       style="vector-effect:non-scaling-stroke;fill:none;fill-opacity:1;stroke:#000000;stroke-width:0.359903;stroke-opacity:1;-inkscape-stroke:hairline" />
    <path
       d="m 30.682273,3.0990482 h 7.198031 l 3.599009,6.2335224 -3.599009,6.2335254 H 30.682273 L 27.083264,9.3325706 Z"
       id="path26-2"
       style="vector-effect:non-scaling-stroke;fill:none;fill-opacity:1;stroke:#000000;stroke-width:0.359903;stroke-opacity:1;-inkscape-stroke:hairline" />
    <path
       d="m 30.682273,40.500201 h 7.198031 l 3.599009,6.233526 -3.599009,6.233526 h -7.198031 l -3.599009,-6.233526 z"
       id="path31-7"
       style="vector-effect:non-scaling-stroke;fill:none;fill-opacity:1;stroke:#000000;stroke-width:0.359903;stroke-opacity:1;-inkscape-stroke:hairline" />
    <path
       d="m 9.0881966,40.500201 h 7.1980304 l 3.599009,6.233526 -3.599009,6.233526 H 9.0881966 L 5.4891797,46.733727 Z"
       id="path33-6"
       style="vector-effect:non-scaling-stroke;fill:none;fill-opacity:1;stroke:#000000;stroke-width:0.359903;stroke-opacity:1;-inkscape-stroke:hairline" />
    <path
       d="m 52.276353,40.500201 h 7.198028 l 3.599009,6.233526 -3.599009,6.233526 h -7.198028 l -3.599012,-6.233526 z"
       id="path34-1"
       style="vector-effect:non-scaling-stroke;fill:none;fill-opacity:1;stroke:#000000;stroke-width:0.359903;stroke-opacity:1;-inkscape-stroke:hairline" />
    <path
       d="m 19.885236,46.733727 h 7.198028 l 3.599009,6.233526 -3.599009,6.233526 h -7.198028 l -3.599009,-6.233526 z"
       id="path41-4"
       style="vector-effect:non-scaling-stroke;fill:none;fill-opacity:1;stroke:#000000;stroke-width:0.359903;stroke-opacity:1;-inkscape-stroke:hairline" />
    <path
       d="m 41.479313,46.733727 h 7.198028 l 3.599012,6.233526 -3.599012,6.233526 h -7.198028 l -3.599009,-6.233526 z"
       id="path44-2"
       style="vector-effect:non-scaling-stroke;fill:none;fill-opacity:1;stroke:#000000;stroke-width:0.359903;stroke-opacity:1;-inkscape-stroke:hairline" />
    <path
       d="m 30.682273,52.967253 h 7.198031 l 3.599009,6.233526 -3.599009,6.233527 h -7.198031 l -3.599009,-6.233527 z"
       id="path51-3"
       style="vector-effect:non-scaling-stroke;fill:none;fill-opacity:1;stroke:#000000;stroke-width:0.359903;stroke-opacity:1;-inkscape-stroke:hairline" />
    <path
       d="m 30.535536,15.610375 h 7.198028 l 3.599009,6.233527 -3.599009,6.233526 h -7.198028 l -3.599009,-6.233526 z"
       id="path6-6"
       style="vector-effect:non-scaling-stroke;fill:none;fill-opacity:1;stroke:#000000;stroke-width:0.359903;stroke-opacity:1;-inkscape-stroke:hairline" />
    <path
       d="m 19.738496,34.310955 h 7.198031 l 3.599009,6.233484 -3.599009,6.233494 h -7.198031 l -3.599009,-6.233494 z"
       id="path21-8"
       style="vector-effect:non-scaling-stroke;fill:none;fill-opacity:1;stroke:#000000;stroke-width:0.359903;stroke-opacity:1;-inkscape-stroke:hairline" />
    <path
       style="fill:#00ff00;stroke:#000000;stroke-width:1.45216;stroke-opacity:1"
       d="m 157.21931,173.89616 c -0.78195,-0.99836 -3.82474,-6.16517 -6.76175,-11.48181 l -5.34,-9.66661 6.28182,-10.66363 6.28182,-10.66363 12.48867,-0.41729 12.48867,-0.41729 6.06625,10.52177 c 3.33644,5.78697 6.18426,10.93379 6.32849,11.43738 0.14423,0.5036 -2.58875,5.92203 -6.07329,12.04097 l -6.33553,11.12534 h -12.0017 c -7.87499,0 -12.49056,-0.62414 -13.42345,-1.8152 z"
       id="path2"
       transform="scale(0.26458333)" />
    <path
       style="fill:#00ff00;stroke:#000000;stroke-width:1.45216;stroke-opacity:1"
       d="m 110.48969,94.262837 c -3.26379,-5.660976 -5.93417,-10.802264 -5.93417,-11.425085 0,-0.622823 2.6984,-5.793195 5.99644,-11.489718 L 116.5484,60.99072 h 12.75666 12.75666 l 5.57058,9.80208 c 3.06382,5.391144 5.78476,10.281237 6.04652,10.866872 0.26177,0.585635 -2.31876,5.976779 -5.73452,11.98032 l -6.21047,10.915528 h -12.65498 -12.65499 z"
       id="path3"
       transform="scale(0.26458333)" />
    <path
       style="fill:#00ff00;stroke:#000000;stroke-width:1.45216;stroke-opacity:1"
       d="m 71.15584,166.67148 c -2.795408,-4.95298 -5.634105,-10.0869 -6.308216,-11.40872 -0.867828,-1.70166 0.616022,-5.63433 5.08256,-13.47041 l 6.308216,-11.06711 12.34336,-0.006 12.34336,-0.006 5.80864,10.51845 c 3.19475,5.78514 5.80864,11.17191 5.80864,11.9706 0,0.79869 -2.61389,6.18546 -5.80864,11.97061 l -5.80864,10.51844 -12.34336,-0.008 -12.34336,-0.008 z"
       id="path4"
       transform="scale(0.26458333)" />
  </g>
</svg>
