<?xml version="1.0" encoding="UTF-8" standalone="no"?>
<!-- Created with Inkscape (http://www.inkscape.org/) -->

<svg
   width="256"
   height="256"
   viewBox="0 0 67.733334 67.733334"
   version="1.1"
   id="svg1"
   inkscape:version="1.4 (86a8ad7, 2024-10-11)"
   sodipodi:docname="4.svg"
   inkscape:export-filename="4.png"
   inkscape:export-xdpi="47.393879"
   inkscape:export-ydpi="47.393879"
   xmlns:inkscape="http://www.inkscape.org/namespaces/inkscape"
   xmlns:sodipodi="http://sodipodi.sourceforge.net/DTD/sodipodi-0.dtd"
   xmlns="http://www.w3.org/2000/svg"
   xmlns:svg="http://www.w3.org/2000/svg">
  <sodipodi:namedview
     id="namedview1"
     pagecolor="#ffffff"
     bordercolor="#000000"
     borderopacity="0.25"
     inkscape:showpageshadow="2"
     inkscape:pageopacity="0.0"
     inkscape:pagecheckerboard="0"
     inkscape:deskcolor="#d1d1d1"
     inkscape:document-units="mm"
     inkscape:zoom="0.68862935"
     inkscape:cx="410.96128"
     inkscape:cy="507.52992"
     inkscape:window-width="1147"
     inkscape:window-height="1211"
     inkscape:window-x="2125"
     inkscape:window-y="40"
     inkscape:window-maximized="0"
     inkscape:current-layer="layer1"
     inkscape:export-bgcolor="#ffffff00" />
  <defs
     id="defs1" />
  <g
     inkscape:label="Layer 1"
     inkscape:groupmode="layer"
     id="layer1">
    <path
       d="m 9.0881966,15.566096 h 7.1980304 l 3.599009,6.233526 -3.599009,6.233526 H 9.0881966 L 5.4891797,21.799622 Z"
       id="path8-4"
       style="vector-effect:non-scaling-stroke;fill:none;fill-opacity:1;stroke:#000000;stroke-width:0.359903;stroke-opacity:1;-inkscape-stroke:hairline" />
    <path
       d="m 52.276353,15.566096 h 7.198028 l 3.599009,6.233526 -3.599009,6.233526 h -7.198028 l -3.599012,-6.233526 z"
       id="path9-5"
       style="vector-effect:non-scaling-stroke;fill:none;fill-opacity:1;stroke:#000000;stroke-width:0.359903;stroke-opacity:1;-inkscape-stroke:hairline" />
    <path
       d="m 30.682273,28.033148 h 7.198031 l 3.599009,6.233527 -3.599009,6.233526 h -7.198031 l -3.599009,-6.233526 z"
       id="path11-5"
       style="vector-effect:non-scaling-stroke;fill:none;fill-opacity:1;stroke:#000000;stroke-width:0.359903;stroke-opacity:1;-inkscape-stroke:hairline" />
    <path
       d="m 9.0881966,28.033148 h 7.1980304 l 3.599009,6.233527 -3.599009,6.233526 H 9.0881966 L 5.4891797,34.266675 Z"
       id="path13-1"
       style="vector-effect:non-scaling-stroke;fill:none;fill-opacity:1;stroke:#000000;stroke-width:0.359903;stroke-opacity:1;-inkscape-stroke:hairline" />
    <path
       d="m 52.276353,28.033148 h 7.198028 l 3.599009,6.233527 -3.599009,6.233526 h -7.198028 l -3.599012,-6.233526 z"
       id="path14-7"
       style="vector-effect:non-scaling-stroke;fill:none;fill-opacity:1;stroke:#000000;stroke-width:0.359903;stroke-opacity:1;-inkscape-stroke:hairline" />
    <path
       d="m 19.885236,9.3325706 h 7.198028 l 3.599009,6.2335254 -3.599009,6.233526 h -7.198028 l -3.599009,-6.233526 z"
       id="path16-1"
       style="vector-effect:non-scaling-stroke;fill:none;fill-opacity:1;stroke:#000000;stroke-width:0.359903;stroke-opacity:1;-inkscape-stroke:hairline" />
    <path
       d="m 41.479313,9.3325706 h 7.198028 l 3.599012,6.2335254 -3.599012,6.233526 h -7.198028 l -3.599009,-6.233526 z"
       id="path19-1"
       style="vector-effect:non-scaling-stroke;fill:none;fill-opacity:1;stroke:#000000;stroke-width:0.359903;stroke-opacity:1;-inkscape-stroke:hairline" />
    <path
       d="m 41.479313,34.266675 h 7.198028 l 3.599012,6.233526 -3.599012,6.233526 h -7.198028 l -3.599009,-6.233526 z"
       id="path24-5"
       style="vector-effect:non-scaling-stroke;fill:none;fill-opacity:1;stroke:#000000;stroke-width:0.359903;stroke-opacity:1;-inkscape-stroke:hairline" />
    <path
       d="m 30.682273,3.0990482 h 7.198031 l 3.599009,6.2335224 -3.599009,6.2335254 H 30.682273 L 27.083264,9.3325706 Z"
       id="path26-2"
       style="vector-effect:non-scaling-stroke;fill:none;fill-opacity:1;stroke:#000000;stroke-width:0.359903;stroke-opacity:1;-inkscape-stroke:hairline" />
    <path
       d="m 30.682273,40.500201 h 7.198031 l 3.599009,6.233526 -3.599009,6.233526 h -7.198031 l -3.599009,-6.233526 z"
       id="path31-7"
       style="vector-effect:non-scaling-stroke;fill:none;fill-opacity:1;stroke:#000000;stroke-width:0.359903;stroke-opacity:1;-inkscape-stroke:hairline" />
    <path
       d="m 9.0881966,40.500201 h 7.1980304 l 3.599009,6.233526 -3.599009,6.233526 H 9.0881966 L 5.4891797,46.733727 Z"
       id="path33-6"
       style="vector-effect:non-scaling-stroke;fill:none;fill-opacity:1;stroke:#000000;stroke-width:0.359903;stroke-opacity:1;-inkscape-stroke:hairline" />
    <path
       d="m 52.276353,40.500201 h 7.198028 l 3.599009,6.233526 -3.599009,6.233526 h -7.198028 l -3.599012,-6.233526 z"
       id="path34-1"
       style="vector-effect:non-scaling-stroke;fill:none;fill-opacity:1;stroke:#000000;stroke-width:0.359903;stroke-opacity:1;-inkscape-stroke:hairline" />
    <path
       d="m 19.885236,46.733727 h 7.198028 l 3.599009,6.233526 -3.599009,6.233526 h -7.198028 l -3.599009,-6.233526 z"
       id="path41-4"
       style="vector-effect:non-scaling-stroke;fill:none;fill-opacity:1;stroke:#000000;stroke-width:0.359903;stroke-opacity:1;-inkscape-stroke:hairline" />
    <path
       d="m 41.479313,46.733727 h 7.198028 l 3.599012,6.233526 -3.599012,6.233526 h -7.198028 l -3.599009,-6.233526 z"
       id="path44-2"
       style="vector-effect:non-scaling-stroke;fill:none;fill-opacity:1;stroke:#000000;stroke-width:0.359903;stroke-opacity:1;-inkscape-stroke:hairline" />
    <path
       d="m 30.682273,52.967253 h 7.198031 l 3.599009,6.233526 -3.599009,6.233527 h -7.198031 l -3.599009,-6.233527 z"
       id="path51-3"
       style="vector-effect:non-scaling-stroke;fill:none;fill-opacity:1;stroke:#000000;stroke-width:0.359903;stroke-opacity:1;-inkscape-stroke:hairline" />
    <path
       d="m 30.535536,15.610375 h 7.198028 l 3.599009,6.233527 -3.599009,6.233526 h -7.198028 l -3.599009,-6.233526 z"
       id="path6-6"
       style="vector-effect:non-scaling-stroke;fill:none;fill-opacity:1;stroke:#000000;stroke-width:0.359903;stroke-opacity:1;-inkscape-stroke:hairline" />
    <path
       d="m 19.738496,34.310955 h 7.198031 l 3.599009,6.233484 -3.599009,6.233494 h -7.198031 l -3.599009,-6.233494 z"
       id="path21-8"
       style="vector-effect:non-scaling-stroke;fill:none;fill-opacity:1;stroke:#000000;stroke-width:0.359903;stroke-opacity:1;-inkscape-stroke:hairline" />
    <path
       style="fill:#ff00ff;stroke:#000000;stroke-width:1.45216;stroke-opacity:1"
       d="m 69.70368,116.89888 -6.012075,-10.8912 6.012075,-10.8912 6.012075,-10.8912 h 12.678796 12.678799 l 6.09756,10.717089 c 3.35366,5.894401 6.09757,11.171291 6.09757,11.726441 0,0.55514 -2.68836,5.53453 -5.97414,11.06531 l -5.97413,10.05596 H 88.517982 75.715755 Z"
       id="path4"
       transform="scale(0.26458333)" />
    <path
       style="fill:#ff00ff;stroke:#000000;stroke-width:1.45216;stroke-opacity:1"
       d="m 71.15584,166.67148 c -2.795408,-4.95298 -5.634105,-10.0869 -6.308216,-11.40872 -0.867828,-1.70166 0.616022,-5.63433 5.08256,-13.47041 l 6.308216,-11.06711 12.34336,-0.006 12.34336,-0.006 5.80864,10.51845 c 3.19475,5.78514 5.80864,11.17191 5.80864,11.9706 0,0.79869 -2.61389,6.18546 -5.80864,11.97061 l -5.80864,10.51844 -12.34336,-0.008 -12.34336,-0.008 z"
       id="path5"
       transform="scale(0.26458333)" />
    <path
       style="fill:#ff00ff;stroke:#000000;stroke-width:1.45216;stroke-opacity:1"
       d="m 157.21931,173.89616 c -0.78195,-0.99836 -3.82474,-6.16517 -6.76175,-11.48181 l -5.34,-9.66661 6.28182,-10.66363 6.28182,-10.66363 12.48867,-0.41729 12.48867,-0.41729 6.06625,10.52177 c 3.33644,5.78697 6.18426,10.93379 6.32849,11.43738 0.14423,0.5036 -2.58875,5.92203 -6.07329,12.04097 l -6.33553,11.12534 h -12.0017 c -7.87499,0 -12.49056,-0.62414 -13.42345,-1.8152 z"
       id="path6"
       transform="scale(0.26458333)" />
    <path
       style="fill:#ff00ff;stroke:#000000;stroke-width:1.45216;stroke-opacity:1"
       d="m 151.38768,116.97015 c -3.39442,-5.97781 -6.17168,-11.15917 -6.17168,-11.51413 0,-0.35495 2.68398,-5.30068 5.9644,-10.990489 l 5.9644,-10.345115 13.16153,0.415472 13.16153,0.415472 6.1289,10.384284 6.12891,10.384286 -6.05444,10.67203 -6.05443,10.67204 -13.02872,0.38745 -13.02872,0.38745 z"
       id="path7"
       transform="scale(0.26458333)" />
    <path
       style="fill:#ffffff;stroke-width:1.45216"
       d="M 34.556028,102.79362 C 33.74974,101.76594 30.7635,96.677552 27.91994,91.48608 L 22.74983,82.04704 29.294197,70.7928 35.838564,59.53856 h 12.075027 12.075026 l 6.705633,11.437991 6.705633,11.437992 -6.319437,10.707448 -6.319437,10.707449 -12.369502,0.41634 c -8.775622,0.29537 -12.795432,-0.12654 -13.835479,-1.45216 z"
       id="path1"
       transform="scale(0.26458333)" />
    <path
       style="fill:#ffffff;stroke-width:1.45216"
       d="m 28.702479,140.24365 -6.149362,-10.82982 6.268858,-10.61396 6.268857,-10.61395 h 12.884406 12.884407 l 6.100105,10.34755 6.100104,10.34755 -6.075285,10.70877 -6.075287,10.70877 -13.02872,0.38745 -13.028722,0.38745 z"
       id="path2"
       transform="scale(0.26458333)" />
    <path
       style="fill:#ffffff;stroke-width:1.45216"
       d="m 29.16952,187.87722 c -3.599414,-6.14888 -6.338558,-11.56502 -6.086986,-12.03586 0.251572,-0.47084 3.240423,-5.59375 6.641891,-11.38424 l 6.184489,-10.52816 h 11.888935 11.888938 l 6.097567,10.71709 c 3.353661,5.8944 6.084774,11.61228 6.069139,12.7064 -0.01563,1.09412 -2.499381,6.23688 -5.519437,11.42835 l -5.491009,9.43904 -12.564569,0.41859 -12.564567,0.41858 z"
       id="path3"
       transform="scale(0.26458333)" />
    <path
       style="fill:#ffffff;stroke-width:1.45216"
       d="m 75.172274,220.36528 c -0.781959,-0.99836 -3.729265,-6.06277 -6.549568,-11.25424 l -5.127824,-9.43904 6.06725,-10.16512 6.06725,-10.16512 13.010909,-0.38486 13.010909,-0.38486 6.24469,10.82042 6.24469,10.82041 -6.24469,10.93719 -6.24469,10.93718 -12.52859,0.0466 c -8.345729,0.0311 -13.003262,-0.55941 -13.950336,-1.76858 z"
       id="path8"
       transform="scale(0.26458333)" />
    <path
       style="fill:#ffffff;stroke-width:1.45216"
       d="M 70.358826,70.7928 C 66.986974,65.002312 64.207685,59.582004 64.182627,58.747673 64.157569,57.91334 66.93434,52.522196 70.35323,46.767353 L 76.569394,36.304 h 12.000053 c 13.444143,0 12.526983,-0.598927 20.013653,13.06944 l 5.17011,9.43904 -6.54437,11.25424 -6.54436,11.25424 H 88.576971 76.489464 Z"
       id="path9"
       transform="scale(0.26458333)" />
    <path
       style="fill:#ffffff;stroke-width:1.45216"
       d="m 110.85602,46.705051 -6.71196,-11.484664 6.52693,-11.075474 6.52694,-11.075473 12.55687,0.01542 12.55688,0.01542 6.25858,10.980517 6.25858,10.980516 -6.28649,11.149503 -6.28649,11.149501 -12.34394,0.414698 -12.34394,0.414698 z"
       id="path10"
       transform="scale(0.26458333)" />
    <path
       style="fill:#ffffff;stroke-width:1.45216"
       d="m 110.04527,93.772773 -6.12754,-10.751904 6.12754,-10.983745 6.12753,-10.983744 h 13.06944 13.06944 l 6.018,10.789723 6.018,10.789723 -6.41652,10.961348 -6.41652,10.961346 -12.67092,-0.0154 -12.67092,-0.0154 z"
       id="path11"
       transform="scale(0.26458333)" />
    <path
       style="fill:#ffffff;stroke-width:1.45216"
       d="m 114.96602,147.75728 c -1.0999,-1.79705 -3.9897,-6.60082 -6.42178,-10.67506 l -4.42197,-7.4077 6.43775,-11.10734 6.43775,-11.10734 12.65696,0.0154 12.65695,0.0154 6.2671,10.99538 6.2671,10.99538 -6.16304,10.7716 -6.16303,10.7716 h -12.77699 c -11.68956,0 -12.94719,-0.27808 -14.7768,-3.26736 z"
       id="path12"
       transform="scale(0.26458333)" />
    <path
       style="fill:#ffffff;stroke-width:1.45216"
       d="m 110.73386,187.8222 -6.42566,-11.12372 6.48069,-11.4386 6.48068,-11.43859 12.49315,0.41688 12.49314,0.41687 6.21558,11.02384 6.21559,11.02383 -6.18768,11.09028 -6.18767,11.09027 -12.57608,0.0313 -12.57608,0.0313 z"
       id="path13"
       transform="scale(0.26458333)" />
    <path
       style="fill:#ffffff;stroke-width:1.45216"
       d="m 115.85485,243.59984 c -2.87947,-3.73436 -10.57325,-18.20806 -10.57325,-19.8906 0,-0.96146 2.64271,-6.27306 5.8727,-11.80356 l 5.87269,-10.05544 12.64235,0.0178 12.64234,0.0178 6.28454,10.84914 6.28454,10.84913 -6.21043,10.91546 -6.21042,10.91545 H 129.8572 c -8.36757,0 -13.07305,-0.61 -14.00235,-1.8152 z"
       id="path14"
       transform="scale(0.26458333)" />
    <path
       style="fill:#ffffff;stroke-width:1.45216"
       d="m 151.87625,211.8878 c -3.26379,-5.66098 -5.93417,-10.93811 -5.93417,-11.72696 0,-0.78885 2.64271,-5.95922 5.8727,-11.48972 l 5.87269,-10.05544 h 12.90367 12.90367 l 6.01076,10.88883 6.01077,10.88883 -6.19798,10.89357 -6.19797,10.89357 h -12.65498 -12.65499 z"
       id="path15"
       transform="scale(0.26458333)" />
    <path
       style="fill:#ffffff;stroke-width:1.45216"
       d="m 151.47137,70.02888 -6.39767,-11.292082 6.54299,-11.216399 6.54299,-11.216399 12.40624,0.04662 12.40624,0.04662 6.30553,11.041937 c 4.45682,7.804573 5.94697,11.744789 5.08256,13.439212 -0.67263,1.3185 -3.51012,6.449712 -6.30553,11.402691 l -5.08256,9.005419 -12.55155,0.01723 -12.55156,0.01723 z"
       id="path16"
       transform="scale(0.26458333)" />
    <path
       style="fill:#ffffff;stroke-width:1.45216"
       d="m 192.51292,93.848588 c -3.2507,-5.888814 -5.91036,-11.137677 -5.91036,-11.66414 0,-0.526463 2.77726,-5.830219 6.17168,-11.786125 l 6.17168,-10.828919 12.34336,0.0018 12.34336,0.0018 5.08256,9.005417 c 2.79541,4.952981 5.64823,10.118546 6.33959,11.479037 0.90899,1.788716 -0.47777,5.522713 -5.00844,13.485832 l -6.26548,11.01221 h -12.6788 -12.67879 z"
       id="path17"
       transform="scale(0.26458333)" />
    <path
       style="fill:#ffffff;stroke-width:1.45216"
       d="m 192.47526,140.9692 c -3.22999,-5.5305 -5.8727,-10.70087 -5.8727,-11.48972 0,-0.78885 2.67038,-6.06598 5.93417,-11.72696 l 5.93417,-10.29268 h 12.68494 12.68493 l 6.06761,10.60483 c 3.33719,5.83265 6.06762,11.00302 6.06762,11.48971 0,0.48669 -2.67038,5.5166 -5.93417,11.17758 l -5.93417,10.29268 H 211.2278 198.34795 Z"
       id="path18"
       transform="scale(0.26458333)" />
    <path
       style="fill:#ffffff;stroke-width:1.45216"
       d="m 192.67018,188.3411 c -3.33719,-5.83266 -6.06762,-11.15846 -6.06762,-11.83511 0,-0.67666 2.77726,-6.02529 6.17168,-11.88585 l 6.17168,-10.65556 12.34336,-0.002 12.34336,-0.002 6.17168,10.82892 c 3.39442,5.95591 6.17168,11.2551 6.17168,11.77597 0,0.52088 -2.7439,5.76974 -6.09757,11.66414 l -6.09756,10.71709 h -12.52154 -12.52154 z"
       id="path19"
       transform="scale(0.26458333)" />
  </g>
</svg>
