<?xml version="1.0" encoding="UTF-8" standalone="no"?>
<!-- Created with Inkscape (http://www.inkscape.org/) -->

<svg
   width="256"
   height="256"
   viewBox="0 0 67.733334 67.733334"
   version="1.1"
   id="svg1"
   inkscape:version="1.4 (86a8ad7, 2024-10-11)"
   sodipodi:docname="8.svg"
   inkscape:export-filename="Documents\GitHub\tronimoes\tronapp\public\tilesets\beehive\0.png"
   inkscape:export-xdpi="47.393879"
   inkscape:export-ydpi="47.393879"
   xmlns:inkscape="http://www.inkscape.org/namespaces/inkscape"
   xmlns:sodipodi="http://sodipodi.sourceforge.net/DTD/sodipodi-0.dtd"
   xmlns="http://www.w3.org/2000/svg"
   xmlns:svg="http://www.w3.org/2000/svg">
  <sodipodi:namedview
     id="namedview1"
     pagecolor="#ffffff"
     bordercolor="#000000"
     borderopacity="0.25"
     inkscape:showpageshadow="2"
     inkscape:pageopacity="0.0"
     inkscape:pagecheckerboard="0"
     inkscape:deskcolor="#d1d1d1"
     inkscape:document-units="mm"
     inkscape:zoom="0.68862935"
     inkscape:cx="410.96128"
     inkscape:cy="507.52992"
     inkscape:window-width="1920"
     inkscape:window-height="991"
     inkscape:window-x="-9"
     inkscape:window-y="-9"
     inkscape:window-maximized="1"
     inkscape:current-layer="layer1"
     inkscape:export-bgcolor="#ffffff00" />
  <defs
     id="defs1" />
  <g
     inkscape:label="Layer 1"
     inkscape:groupmode="layer"
     id="layer1">
    <path
       d="m 9.0881966,15.566096 h 7.1980304 l 3.599009,6.233526 -3.599009,6.233526 H 9.0881966 L 5.4891797,21.799622 Z"
       id="path8-4"
       style="vector-effect:non-scaling-stroke;fill:none;fill-opacity:1;stroke:#000000;stroke-width:0.359903;stroke-opacity:1;-inkscape-stroke:hairline" />
    <path
       d="m 52.276353,15.566096 h 7.198028 l 3.599009,6.233526 -3.599009,6.233526 h -7.198028 l -3.599012,-6.233526 z"
       id="path9-5"
       style="vector-effect:non-scaling-stroke;fill:none;fill-opacity:1;stroke:#000000;stroke-width:0.359903;stroke-opacity:1;-inkscape-stroke:hairline" />
    <path
       d="m 30.682273,28.033148 h 7.198031 l 3.599009,6.233527 -3.599009,6.233526 h -7.198031 l -3.599009,-6.233526 z"
       id="path11-5"
       style="vector-effect:non-scaling-stroke;fill:none;fill-opacity:1;stroke:#000000;stroke-width:0.359903;stroke-opacity:1;-inkscape-stroke:hairline" />
    <path
       d="m 9.0881966,28.033148 h 7.1980304 l 3.599009,6.233527 -3.599009,6.233526 H 9.0881966 L 5.4891797,34.266675 Z"
       id="path13-1"
       style="vector-effect:non-scaling-stroke;fill:none;fill-opacity:1;stroke:#000000;stroke-width:0.359903;stroke-opacity:1;-inkscape-stroke:hairline" />
    <path
       d="m 52.276353,28.033148 h 7.198028 l 3.599009,6.233527 -3.599009,6.233526 h -7.198028 l -3.599012,-6.233526 z"
       id="path14-7"
       style="vector-effect:non-scaling-stroke;fill:none;fill-opacity:1;stroke:#000000;stroke-width:0.359903;stroke-opacity:1;-inkscape-stroke:hairline" />
    <path
       d="m 19.885236,9.3325706 h 7.198028 l 3.599009,6.2335254 -3.599009,6.233526 h -7.198028 l -3.599009,-6.233526 z"
       id="path16-1"
       style="vector-effect:non-scaling-stroke;fill:none;fill-opacity:1;stroke:#000000;stroke-width:0.359903;stroke-opacity:1;-inkscape-stroke:hairline" />
    <path
       d="m 41.479313,9.3325706 h 7.198028 l 3.599012,6.2335254 -3.599012,6.233526 h -7.198028 l -3.599009,-6.233526 z"
       id="path19-1"
       style="vector-effect:non-scaling-stroke;fill:none;fill-opacity:1;stroke:#000000;stroke-width:0.359903;stroke-opacity:1;-inkscape-stroke:hairline" />
    <path
       d="m 41.479313,34.266675 h 7.198028 l 3.599012,6.233526 -3.599012,6.233526 h -7.198028 l -3.599009,-6.233526 z"
       id="path24-5"
       style="vector-effect:non-scaling-stroke;fill:none;fill-opacity:1;stroke:#000000;stroke-width:0.359903;stroke-opacity:1;-inkscape-stroke:hairline" />
    <path
       d="m 30.682273,3.0990482 h 7.198031 l 3.599009,6.2335224 -3.599009,6.2335254 H 30.682273 L 27.083264,9.3325706 Z"
       id="path26-2"
       style="vector-effect:non-scaling-stroke;fill:none;fill-opacity:1;stroke:#000000;stroke-width:0.359903;stroke-opacity:1;-inkscape-stroke:hairline" />
    <path
       d="m 30.682273,40.500201 h 7.198031 l 3.599009,6.233526 -3.599009,6.233526 h -7.198031 l -3.599009,-6.233526 z"
       id="path31-7"
       style="vector-effect:non-scaling-stroke;fill:none;fill-opacity:1;stroke:#000000;stroke-width:0.359903;stroke-opacity:1;-inkscape-stroke:hairline" />
    <path
       d="m 9.0881966,40.500201 h 7.1980304 l 3.599009,6.233526 -3.599009,6.233526 H 9.0881966 L 5.4891797,46.733727 Z"
       id="path33-6"
       style="vector-effect:non-scaling-stroke;fill:none;fill-opacity:1;stroke:#000000;stroke-width:0.359903;stroke-opacity:1;-inkscape-stroke:hairline" />
    <path
       d="m 52.276353,40.500201 h 7.198028 l 3.599009,6.233526 -3.599009,6.233526 h -7.198028 l -3.599012,-6.233526 z"
       id="path34-1"
       style="vector-effect:non-scaling-stroke;fill:none;fill-opacity:1;stroke:#000000;stroke-width:0.359903;stroke-opacity:1;-inkscape-stroke:hairline" />
    <path
       d="m 19.885236,46.733727 h 7.198028 l 3.599009,6.233526 -3.599009,6.233526 h -7.198028 l -3.599009,-6.233526 z"
       id="path41-4"
       style="vector-effect:non-scaling-stroke;fill:none;fill-opacity:1;stroke:#000000;stroke-width:0.359903;stroke-opacity:1;-inkscape-stroke:hairline" />
    <path
       d="m 41.479313,46.733727 h 7.198028 l 3.599012,6.233526 -3.599012,6.233526 h -7.198028 l -3.599009,-6.233526 z"
       id="path44-2"
       style="vector-effect:non-scaling-stroke;fill:none;fill-opacity:1;stroke:#000000;stroke-width:0.359903;stroke-opacity:1;-inkscape-stroke:hairline" />
    <path
       d="m 30.682273,52.967253 h 7.198031 l 3.599009,6.233526 -3.599009,6.233527 h -7.198031 l -3.599009,-6.233527 z"
       id="path51-3"
       style="vector-effect:non-scaling-stroke;fill:none;fill-opacity:1;stroke:#000000;stroke-width:0.359903;stroke-opacity:1;-inkscape-stroke:hairline" />
    <path
       d="m 30.535536,15.610375 h 7.198028 l 3.599009,6.233527 -3.599009,6.233526 h -7.198028 l -3.599009,-6.233526 z"
       id="path6-6"
       style="vector-effect:non-scaling-stroke;fill:none;fill-opacity:1;stroke:#000000;stroke-width:0.359903;stroke-opacity:1;-inkscape-stroke:hairline" />
    <path
       d="m 19.738496,34.310955 h 7.198031 l 3.599009,6.233484 -3.599009,6.233494 h -7.198031 l -3.599009,-6.233494 z"
       id="path21-8"
       style="vector-effect:non-scaling-stroke;fill:none;fill-opacity:1;stroke:#000000;stroke-width:0.359903;stroke-opacity:1;-inkscape-stroke:hairline" />
    <path
       style="fill:#ff0000;stroke:#000000;stroke-width:1.45216;stroke-opacity:1"
       d="m 29.332127,188.22883 c -3.353662,-5.8944 -6.097567,-11.14326 -6.097567,-11.66414 0,-0.52087 2.777256,-5.83855 6.17168,-11.81704 l 6.17168,-10.87 12.148919,0.3887 12.148919,0.38869 6.480695,11.22698 6.480694,11.22698 -6.21214,10.91846 -6.21214,10.91846 H 47.92128 35.429694 Z"
       id="path23"
       transform="scale(0.26458333)" />
    <path
       style="fill:#ff0000;stroke:#000000;stroke-width:1.45216;stroke-opacity:1"
       d="M 29.331175,94.001377 C 25.978037,88.140848 23.23456,82.869178 23.23456,82.286555 c 0,-0.582622 2.777256,-5.932326 6.17168,-11.888232 l 6.17168,-10.828919 h 12.34336 12.34336 l 6.404772,11.235552 6.404774,11.235551 -5.916361,10.894468 -5.916362,10.894465 -12.906836,0.41372 -12.906837,0.41373 z"
       id="path24"
       transform="scale(0.26458333)" />
    <path
       style="fill:#ff0000;stroke:#000000;stroke-width:1.45216;stroke-opacity:1"
       d="m 197.88353,102.74032 c -0.77991,-0.99836 -3.82134,-5.969877 -6.75873,-11.047818 l -5.3407,-9.232617 6.71892,-11.460662 6.71892,-11.460663 h 12.07503 12.07503 l 6.54436,11.25424 6.54437,11.25424 -5.17011,9.43904 c -7.48617,13.66745 -6.57097,13.06944 -20.00134,13.06944 -7.86581,0 -12.47532,-0.62415 -13.40575,-1.8152 z"
       id="path25"
       transform="scale(0.26458333)" />
    <path
       style="fill:#ff0000;stroke:#000000;stroke-width:1.45216;stroke-opacity:1"
       d="m 197.87979,197.13072 c -0.78195,-0.99836 -3.77118,-6.06939 -6.64272,-11.26896 l -5.22097,-9.45377 6.51436,-11.23951 6.51435,-11.23952 h 12.16839 12.16838 l 6.13064,10.52816 c 3.37185,5.79049 6.15114,11.20787 6.17619,12.03863 0.0251,0.83076 -2.70606,6.2219 -6.06916,11.98032 l -6.11472,10.46985 h -12.10149 c -7.95483,0 -12.58867,-0.62199 -13.52325,-1.8152 z"
       id="path26"
       transform="scale(0.26458333)" />
    <path
       style="fill:#ff0000;stroke:#000000;stroke-width:1.45216;stroke-opacity:1"
       d="m 71.15584,166.67148 c -2.795408,-4.95298 -5.634105,-10.0869 -6.308216,-11.40872 -0.867828,-1.70166 0.616022,-5.63433 5.08256,-13.47041 l 6.308216,-11.06711 12.34336,-0.006 12.34336,-0.006 5.80864,10.51845 c 3.19475,5.78514 5.80864,11.17191 5.80864,11.9706 0,0.79869 -2.61389,6.18546 -5.80864,11.97061 l -5.80864,10.51844 -12.34336,-0.008 -12.34336,-0.008 z"
       id="path27"
       transform="scale(0.26458333)" />
    <path
       style="fill:#ff0000;stroke:#000000;stroke-width:1.45216;stroke-opacity:1"
       d="m 69.70368,116.89888 -6.012075,-10.8912 6.012075,-10.8912 6.012075,-10.8912 h 12.678796 12.678799 l 6.09756,10.717089 c 3.35366,5.894401 6.09757,11.171291 6.09757,11.726441 0,0.55514 -2.68836,5.53453 -5.97414,11.06531 l -5.97413,10.05596 H 88.517982 75.715755 Z"
       id="path28"
       transform="scale(0.26458333)" />
    <path
       style="fill:#ff0000;stroke:#000000;stroke-width:1.45216;stroke-opacity:1"
       d="m 151.38768,116.97015 c -3.39442,-5.97781 -6.17168,-11.15917 -6.17168,-11.51413 0,-0.35495 2.68398,-5.30068 5.9644,-10.990489 l 5.9644,-10.345115 13.16153,0.415472 13.16153,0.415472 6.1289,10.384284 6.12891,10.384286 -6.05444,10.67203 -6.05443,10.67204 -13.02872,0.38745 -13.02872,0.38745 z"
       id="path29"
       transform="scale(0.26458333)" />
    <path
       style="fill:#ff0000;stroke:#000000;stroke-width:1.45216;stroke-opacity:1"
       d="m 157.21931,173.89616 c -0.78195,-0.99836 -3.82474,-6.16517 -6.76175,-11.48181 l -5.34,-9.66661 6.28182,-10.66363 6.28182,-10.66363 12.48867,-0.41729 12.48867,-0.41729 6.06625,10.52177 c 3.33644,5.78697 6.18426,10.93379 6.32849,11.43738 0.14423,0.5036 -2.58875,5.92203 -6.07329,12.04097 l -6.33553,11.12534 h -12.0017 c -7.87499,0 -12.49056,-0.62414 -13.42345,-1.8152 z"
       id="path30"
       transform="scale(0.26458333)" />
  </g>
</svg>
